<svg width="20" height="20" viewBox="0 0 20 20" fill="none" xmlns="http://www.w3.org/2000/svg">
<path d="M0 8.88889H8.88889V0H0V8.88889ZM2.22222 2.22222H6.66667V6.66667H2.22222V2.22222Z" fill="white"/>
<path d="M0 20H8.88889V11.1111H0V20ZM2.22222 13.3333H6.66667V17.7778H2.22222V13.3333Z" fill="white"/>
<path d="M11.1111 0V8.88889H20V0H11.1111ZM17.7778 6.66667H13.3333V2.22222H17.7778V6.66667Z" fill="white"/>
<path d="M20.0001 17.7778H17.7778V20.0001H20.0001V17.7778Z" fill="white"/>
<path d="M13.3336 11.1111H11.1113V13.3333H13.3336V11.1111Z" fill="white"/>
<path d="M15.5557 13.3333H13.3335V15.5555H15.5557V13.3333Z" fill="white"/>
<path d="M13.3336 15.5557H11.1113V17.7779H13.3336V15.5557Z" fill="white"/>
<path d="M15.5557 17.7778H13.3335V20.0001H15.5557V17.7778Z" fill="white"/>
<path d="M17.7779 15.5557H15.5557V17.7779H17.7779V15.5557Z" fill="white"/>
<path d="M17.7779 11.1111H15.5557V13.3333H17.7779V11.1111Z" fill="white"/>
<path d="M20.0001 13.3333H17.7778V15.5555H20.0001V13.3333Z" fill="white"/>
</svg>
