<svg width="26" height="26" viewBox="0 0 26 26" fill="none" xmlns="http://www.w3.org/2000/svg">
<path fill-rule="evenodd" clip-rule="evenodd" d="M17.134 24.0115C17.009 24.8411 16.2342 25.5 15.3095 25.5H10.6859C9.7612 25.5 8.98644 24.8411 8.87397 23.9505L8.53658 21.6445C8.19918 21.4736 7.87428 21.2906 7.54937 21.0832L5.30006 21.9617C4.42532 22.2789 3.46311 21.9251 3.03824 21.1686L0.751437 17.3009C0.31407 16.4956 0.501513 15.5439 1.2013 15.0071L3.11322 13.5551C3.10072 13.3721 3.08823 13.1891 3.08823 12.9939C3.08823 12.8109 3.10072 12.6157 3.11322 12.4326L1.2138 10.9807C0.476521 10.4317 0.289078 9.44339 0.751437 8.68692L3.06324 4.79478C3.48811 4.03831 4.45031 3.69668 5.30006 4.02611L7.56187 4.91679C7.88677 4.70937 8.21167 4.52635 8.53658 4.35554L8.87397 2.02513C8.98644 1.17106 9.7612 0.5 10.6734 0.5H15.297C16.2217 0.5 16.9965 1.15886 17.109 2.04954L17.4464 4.35554C17.7838 4.52635 18.1087 4.70937 18.4336 4.91679L20.6829 4.03831C21.5701 3.72108 22.5323 4.07491 22.9572 4.83138L25.2565 8.71132C25.7064 9.51659 25.5064 10.4683 24.8066 11.0051L22.9072 12.4571C22.9197 12.6401 22.9322 12.8231 22.9322 13.0183C22.9322 13.2135 22.9197 13.3965 22.9072 13.5796L24.8066 15.0315C25.5064 15.5805 25.7064 16.5322 25.269 17.3009L22.9447 21.2296C22.5198 21.9861 21.5576 22.3277 20.6954 21.9983L18.4461 21.1198C18.1212 21.3272 17.7963 21.5103 17.4714 21.6811L17.134 24.0115ZM11.2732 23.0598H14.7222L15.1846 19.9485L15.8469 19.6801C16.3967 19.4605 16.9465 19.1432 17.5213 18.7284L18.0837 18.3136L21.0578 19.4849L22.7823 16.5566L20.2455 14.6288L20.333 13.9456L20.3369 13.9127C20.373 13.6073 20.408 13.3119 20.408 12.9939C20.408 12.6645 20.3705 12.3472 20.333 12.0422L20.2455 11.359L22.7823 9.43118L21.0453 6.50293L18.0587 7.67423L17.4964 7.24719C16.9715 6.85676 16.4092 6.53953 15.8344 6.30771L15.1846 6.03929L14.7222 2.92801H11.2732L10.8109 6.03929L10.1486 6.29551C9.59875 6.52733 9.04892 6.83236 8.47409 7.25939L7.91176 7.66203L4.93767 6.50293L3.20069 9.41899L5.73742 11.3468L5.64995 12.03C5.61246 12.3472 5.57497 12.6767 5.57497 12.9939C5.57497 13.3111 5.59997 13.6406 5.64995 13.9456L5.73742 14.6288L3.20069 16.5566L4.92517 19.4849L7.91176 18.3136L8.47409 18.7406C9.01143 19.1432 9.54877 19.4483 10.1361 19.6801L10.7984 19.9485L11.2732 23.0598ZM17.3714 12.9939C17.3714 15.3524 15.4132 17.2643 12.9977 17.2643C10.5822 17.2643 8.62405 15.3524 8.62405 12.9939C8.62405 10.6354 10.5822 8.72352 12.9977 8.72352C15.4132 8.72352 17.3714 10.6354 17.3714 12.9939Z" fill="white"/>
</svg>
