<svg width="24" height="24" viewBox="0 0 26 26" fill="none" xmlns="http://www.w3.org/2000/svg">
<path d="M25.4097 6.29102L22.6701 1.23242C22.4253 0.77832 21.9905 0.5 21.5262 0.5H4.47218C4.00784 0.5 3.57305 0.77832 3.32822 1.23242L0.588604 6.29102C-0.825526 8.90332 0.428195 12.5361 3.07072 12.9512C3.26068 12.9805 3.45485 12.9951 3.64903 12.9951C4.89853 12.9951 6.00451 12.3604 6.76434 11.3789C7.52417 12.3604 8.63437 12.9951 9.87965 12.9951C11.1291 12.9951 12.2351 12.3604 12.995 11.3789C13.7548 12.3604 14.865 12.9951 16.1103 12.9951C17.3598 12.9951 18.4657 12.3604 19.2256 11.3789C19.9896 12.3604 21.0956 12.9951 22.3409 12.9951C22.5393 12.9951 22.7292 12.9805 22.9192 12.9512C25.5702 12.541 26.8281 8.9082 25.4097 6.29102ZM22.3493 14.5625C21.9272 14.5625 21.5093 14.4893 21.104 14.377V19.25H4.89431V14.377C4.48907 14.4844 4.07116 14.5625 3.64903 14.5625C3.39576 14.5625 3.13826 14.543 2.8892 14.5039C2.65281 14.4648 2.42064 14.4014 2.19691 14.3281V23.9375C2.19691 24.8018 2.80056 25.5 3.54772 25.5H22.4591C23.2062 25.5 23.8099 24.8018 23.8099 23.9375V14.3281C23.5819 14.4062 23.354 14.4697 23.1176 14.5039C22.8601 14.543 22.6068 14.5625 22.3493 14.5625Z" fill="white"/>
</svg>
