<svg xmlns="http://www.w3.org/2000/svg" width="800" height="600" viewBox="0 0 800 600">
  <style>
    .st0{fill:#F5F7FA;}
    .st1{fill:#4F46E5;}
    .st2{fill:#6366F1;}
    .st3{fill:#818CF8;}
    .st4{fill:#C7D2FE;}
    .st5{fill:#FFFFFF;}
    .st6{fill:#E0E7FF;}
  </style>
  
  <!-- Background -->
  <rect class="st0" width="800" height="600"/>
  
  <!-- Decorative elements -->
  <circle class="st4" cx="400" cy="300" r="200"/>
  <circle class="st6" cx="400" cy="300" r="150"/>
  
  <!-- Stylized store/shop icon -->
  <g transform="translate(250, 150) scale(0.8)">
    <!-- Store building -->
    <rect class="st1" x="100" y="150" width="300" height="200" rx="10"/>
    <rect class="st2" x="80" y="350" width="340" height="20"/>
    
    <!-- Roof -->
    <polygon class="st3" points="250,80 80,150 420,150"/>
    
    <!-- Door -->
    <rect class="st5" x="220" y="250" width="60" height="100"/>
    <circle class="st2" cx="265" cy="300" r="5"/>
    
    <!-- Windows -->
    <rect class="st5" x="130" y="180" width="60" height="60" rx="5"/>
    <rect class="st5" x="310" y="180" width="60" height="60" rx="5"/>
    
    <!-- Window details -->
    <line class="st3" x1="160" y1="180" x2="160" y2="240" stroke-width="2"/>
    <line class="st3" x1="130" y1="210" x2="190" y2="210" stroke-width="2"/>
    <line class="st3" x1="340" y1="180" x2="340" y2="240" stroke-width="2"/>
    <line class="st3" x1="310" y1="210" x2="370" y2="210" stroke-width="2"/>
    
    <!-- Shopping cart icon -->
    <circle class="st5" cx="160" cy="400" r="20"/>
    <circle class="st5" cx="320" cy="400" r="20"/>
    <rect class="st5" x="140" y="380" width="200" height="40" rx="10"/>
    <path class="st2" d="M140,360 L360,360 L340,320 L160,320 Z"/>
  </g>
  
  <!-- Abstract decorative elements -->
  <circle class="st3" cx="100" cy="100" r="30"/>
  <circle class="st2" cx="700" cy="500" r="40"/>
  <circle class="st4" cx="650" cy="150" r="25"/>
  <circle class="st3" cx="150" cy="500" r="20"/>
</svg>