<?xml version="1.0" encoding="utf-8"?>
<!-- Generator: Adobe Illustrator 27.5.0, SVG Export Plug-In . SVG Version: 6.00 Build 0)  -->
<svg version="1.1" xmlns="http://www.w3.org/2000/svg" xmlns:xlink="http://www.w3.org/1999/xlink" x="0px" y="0px"
	 viewBox="0 0 500 500" style="enable-background:new 0 0 500 500;" xml:space="preserve">
<g id="Shadows">
	<path id="Shadow_29_" style="fill:#EBEBEB;" d="M73.799,394.594l-49.22-28.367c-1.145-0.661-1.146-1.734-0.002-2.398
		l121.644-70.485c1.143-0.663,2.998-0.665,4.143-0.004l49.22,28.366c1.145,0.661,1.146,1.735,0.002,2.398L77.942,394.591
		C76.799,395.254,74.944,395.255,73.799,394.594z"/>
	<path id="Shadow_1_" style="fill:#EBEBEB;" d="M130.991,453.959l-77.245-44.146c-1.125-0.649-1.125-1.702,0-2.352l245.977-142.009
		c1.125-0.65,2.948-0.65,4.073,0l77.244,44.146c1.125,0.65,1.125,1.703,0,2.352L135.064,453.959
		C133.939,454.608,132.115,454.608,130.991,453.959z"/>
	<path id="Shadow_3_" style="fill:#EBEBEB;" d="M225.129,266.197c-8.958,5.171-8.958,13.557,0,18.729
		c8.958,5.172,23.482,5.172,32.439,0c8.958-5.172,8.958-13.557,0-18.729C248.611,261.025,234.087,261.025,225.129,266.197z"/>
	<path id="Shadow_31_" style="fill:#EBEBEB;" d="M85.072,442.826c10.919,6.375,10.919,16.711,0,23.086
		c-10.92,6.376-28.623,6.376-39.542,0c-10.919-6.375-10.919-16.711,0-23.086C56.45,436.451,74.153,436.451,85.072,442.826z"/>
	<path id="Shadow_62_" style="fill:#EBEBEB;" d="M465.721,407.603c28.28,16.512,28.28,43.283-0.001,59.794
		c-28.282,16.512-74.134,16.512-102.414,0c-28.28-16.511-28.28-43.281,0.001-59.793C391.588,391.092,437.44,391.092,465.721,407.603
		z"/>
</g>
<g id="Drawer">
	<g id="Drawer_1_">
		<g>
			<g>
				<g>
					<polygon style="fill:#E0E0E0;" points="84.212,367.158 79.985,388.128 75.876,390.501 71.803,388.149 67.54,367.158 
						75.877,362.345 					"/>
					<polygon style="opacity:0.05;" points="84.212,367.158 79.985,388.128 75.876,390.501 71.803,388.149 67.54,367.158 
						75.877,362.345 					"/>
					<polygon style="fill:#EBEBEB;" points="75.876,390.501 75.876,371.971 84.212,367.158 79.985,388.128 					"/>
				</g>
				<polygon style="opacity:0.05;" points="84.212,367.158 81.482,380.7 75.875,383.937 70.293,380.714 67.54,367.158 
					75.877,362.345 				"/>
			</g>
			<g>
				<g>
					<polygon style="fill:#E0E0E0;" points="47.556,345.995 43.329,366.965 39.22,369.337 35.147,366.986 30.884,345.995 
						39.221,341.182 					"/>
					<polygon style="opacity:0.05;" points="47.556,345.995 43.329,366.965 39.22,369.337 35.147,366.986 30.884,345.995 
						39.221,341.182 					"/>
					<polygon style="fill:#EBEBEB;" points="39.22,369.337 39.221,350.808 47.556,345.995 43.329,366.965 					"/>
				</g>
				<polygon style="opacity:0.05;" points="47.556,345.995 44.826,359.537 39.22,362.774 33.637,359.551 30.884,345.995 
					39.221,341.182 				"/>
			</g>
			<g>
				<g>
					<polygon style="opacity:0.05;" points="192.642,304.554 188.415,325.524 184.305,327.896 180.233,325.545 175.969,304.554 
						184.306,299.741 					"/>
					<polygon style="fill:#EBEBEB;" points="184.305,327.896 184.306,309.367 192.642,304.554 188.415,325.524 					"/>
				</g>
				<polygon style="opacity:0.05;" points="192.642,304.554 189.912,318.096 184.305,321.333 178.723,318.11 175.97,304.554 
					184.306,299.741 				"/>
			</g>
			<g id="Cabinet_5_">
				<g id="Cabinet_6_">
					<g id="XMLID_1370_">
						<polygon id="XMLID_1374_" style="fill:#E0E0E0;" points="75.875,380.553 30.449,354.326 30.448,256.007 75.875,282.234 						
							"/>
						<polygon id="XMLID_1373_" style="fill:#EBEBEB;" points="75.875,282.234 195.004,213.454 195.005,311.773 75.875,380.553 
													"/>
						<polygon id="XMLID_1371_" style="fill:#F5F5F5;" points="195.004,213.454 75.875,282.234 30.448,256.007 149.577,187.227 
													"/>
					</g>
					<g id="XMLID_1363_">
						<g id="XMLID_1368_">
							<polygon id="XMLID_1369_" style="fill:#E0E0E0;" points="82.365,330.94 188.515,269.652 188.513,305.735 189.707,306.425 
								83.557,367.711 82.363,367.021 							"/>
						</g>
						<g id="XMLID_1366_">
							<polygon id="XMLID_1367_" style="fill:#F5F5F5;" points="83.558,331.629 189.709,270.343 189.707,306.425 83.557,367.711 
															"/>
						</g>
						<g id="XMLID_1364_">
							<path id="XMLID_1365_" style="fill:#E0E0E0;" d="M134.591,308.984l8.829-5.098c1.146-0.662,2.075-0.36,2.075,0.675
								c0,1.035-0.929,2.41-2.075,3.072l-8.83,5.097c-1.146,0.662-2.075,0.359-2.075-0.675
								C132.515,311.021,133.445,309.646,134.591,308.984z"/>
						</g>
					</g>
					<g id="XMLID_1356_">
						<g id="XMLID_1361_">
							<polygon id="XMLID_1362_" style="fill:#E0E0E0;" points="82.363,287.371 188.513,226.084 188.511,262.167 189.705,262.857 
								83.555,324.143 82.361,323.453 							"/>
						</g>
						<g id="XMLID_1359_">
							<polygon id="XMLID_1360_" style="fill:#F5F5F5;" points="83.557,288.061 189.707,226.775 189.705,262.857 83.555,324.143 
															"/>
						</g>
						<g id="XMLID_1357_">
							<path id="XMLID_1358_" style="fill:#E0E0E0;" d="M134.589,265.416l8.829-5.097c1.146-0.662,2.075-0.36,2.075,0.675
								c0,1.035-0.929,2.41-2.075,3.072l-8.83,5.097c-1.146,0.662-2.075,0.359-2.075-0.675
								C132.514,267.453,133.443,266.078,134.589,265.416z"/>
						</g>
					</g>
				</g>
			</g>
		</g>
		<g id="Pot_17_">
			<g id="XMLID_1354_">
				<path id="XMLID_1355_" style="fill:#E0E0E0;" d="M120.879,216.846c5.506,3.179,5.506,8.334-0.001,11.513
					c-5.506,3.179-14.435,3.179-19.941,0c-5.507-3.179-5.506-8.334,0-11.513C106.445,213.667,115.373,213.667,120.879,216.846z"/>
			</g>
			<g id="XMLID_1349_">
				<path id="XMLID_1353_" style="fill:#EBEBEB;" d="M102.138,223.313c-4.796-4.893-7.613-17.113-2.935-20.993h23.8
					c4.676,3.88,1.862,16.092-2.931,20.989c-0.041,0.046-0.088,0.09-0.131,0.135c-0.055,0.054-0.11,0.109-0.165,0.161
					c-0.135,0.131-0.279,0.26-0.434,0.385c-0.038,0.032-0.076,0.06-0.115,0.09c-0.118,0.092-0.234,0.185-0.362,0.274
					c-0.204,0.145-0.41,0.28-0.62,0.396c-3.945,2.277-10.341,2.277-14.285,0h0h-0.001c-0.211-0.117-0.418-0.253-0.624-0.399
					c-0.119-0.083-0.227-0.169-0.337-0.255c-0.047-0.037-0.094-0.072-0.142-0.111c-0.149-0.121-0.287-0.245-0.418-0.372
					c-0.064-0.06-0.127-0.123-0.19-0.186C102.213,223.389,102.173,223.352,102.138,223.313z"/>
				<path id="XMLID_1352_" style="fill:#FAFAFA;" d="M120.937,200.756c5.43,3.135,5.43,8.219,0,11.354
					c-5.431,3.135-14.235,3.135-19.665,0c-5.431-3.135-5.431-8.219,0-11.354C106.701,197.621,115.506,197.621,120.937,200.756z"/>
				<path id="XMLID_1351_" style="fill:#F5F5F5;" d="M117.086,202.98c3.304,1.907,3.304,5,0,6.908c-3.304,1.907-8.66,1.907-11.964,0
					c-3.304-1.908-3.304-5,0-6.908C108.426,201.072,113.782,201.072,117.086,202.98z"/>
				<path id="XMLID_1350_" style="fill:#EBEBEB;" d="M105.122,206.258c3.304-1.907,8.66-1.907,11.964,0
					c0.918,0.53,1.571,1.153,1.979,1.815c-0.408,0.662-1.061,1.285-1.979,1.815c-3.304,1.907-8.66,1.907-11.964,0
					c-0.918-0.53-1.571-1.153-1.979-1.815C103.55,207.411,104.204,206.788,105.122,206.258z"/>
			</g>
			<g id="XMLID_1347_">
				<path id="XMLID_1348_" style="fill:#E0E0E0;" d="M116.357,208.072c0,0,2.329-2.219,4.327-5.753
					c1.998-3.534,2.367-8.268,1.334-8.852c-1.033-0.584-5.238,4.138-5.238,4.138s0.619-2.885,0.443-6.032
					c-0.177-3.147-0.944-6.007-1.845-6.585c-0.901-0.578-2.918,3.394-3.783,6.271c-0.865,2.878-1.382,5.242-1.382,5.242
					s-0.591-3.889-1.55-6.621c-1.049-2.987-2-3.662-2.738-3.367c-0.738,0.295-1.225,1.689-1.44,5.668
					c-0.151,2.786,0.178,5.694,0.178,5.694s-1.482-1.63-3.129-3.212c-1.808-1.736-2.582-1.976-3.098-1.645
					c-0.516,0.331-0.659,3.033,2.14,8.097c2.471,4.468,5.285,6.956,5.285,6.956S109.736,210.571,116.357,208.072z"/>
			</g>
		</g>
		<g id="Picture_21_">
			<g id="Frame_20_">
				<polygon id="XMLID_1346_" style="fill:#FAFAFA;" points="53.295,258.825 54.815,259.556 82.951,243.312 81.432,242.579 				"/>
				<g id="XMLID_1319_">
					<g id="XMLID_1341_">
						<g id="XMLID_1343_">
							<polygon id="XMLID_1345_" style="fill:#FFFFFF;" points="81.432,242.579 54.666,258.03 50.773,217.994 77.54,202.553 							
								"/>
						</g>
					</g>
				</g>
				<path id="XMLID_1312_" style="fill:#F0F0F0;" d="M81.222,197.427L47.91,216.66l4.593,47.219l33.312-19.233L81.222,197.427z
					 M82.951,243.312l-28.136,16.245l-4.042-41.563l28.136-16.244L82.951,243.312z"/>
				<polygon id="XMLID_1311_" style="fill:#E0E0E0;" points="82.951,243.312 81.432,242.579 77.54,202.553 78.909,201.749 				"/>
				<polygon id="XMLID_1310_" style="fill:#FAFAFA;" points="81.222,197.427 79.682,196.715 46.37,215.947 47.91,216.66 				"/>
				<polygon id="XMLID_1303_" style="fill:#E0E0E0;" points="46.37,215.947 47.91,216.66 52.502,263.879 50.963,263.167 				"/>
			</g>
			<g id="Land_16_">
				<polygon style="fill:#F0F0F0;" points="80.255,241.818 55.579,256.065 54.923,249.32 59.512,229.507 63.887,236.268 
					62.981,241.964 70.277,220.943 79.599,235.074 				"/>
				<path style="fill:#F0F0F0;" d="M59.133,221.165c-1.008,0.582-1.738,1.947-1.631,3.049c0.107,1.102,1.011,1.524,2.019,0.942
					c1.008-0.582,1.738-1.947,1.631-3.049C61.045,221.005,60.141,220.583,59.133,221.165z"/>
			</g>
		</g>
	</g>
</g>
<g id="Lamp">
	<g id="Lamp_1_">
		<g>
			<path style="fill:#E0E0E0;" d="M260.861,269.873h-0.018c0.003-2.883-1.887-5.765-5.697-7.965c-7.619-4.399-19.974-4.399-27.593,0
				c-3.81,2.2-5.7,5.083-5.697,7.965h-0.018v2.695l0,0c0.046,2.845,1.955,5.682,5.715,7.853c7.62,4.399,19.974,4.399,27.594,0
				c3.761-2.171,5.669-5.008,5.715-7.853l0,0V269.873z"/>
			<g id="XMLID_1308_">
				<g id="XMLID_1309_">
					<path id="XMLID_1342_" style="fill:#F0F0F0;" d="M227.552,261.907c-7.619,4.4-7.619,11.532,0,15.931
						c7.62,4.4,19.974,4.4,27.594,0c7.62-4.399,7.62-11.532,0-15.931C247.526,257.508,235.172,257.508,227.552,261.907z"/>
				</g>
			</g>
		</g>
		<path id="XMLID_1307_" style="fill:#E0E0E0;" d="M239.34,88.798h4.104v178.961h-0.017c0.05,0.336-0.139,0.682-0.584,0.939
			c-0.802,0.463-2.101,0.463-2.902,0c-0.446-0.257-0.634-0.603-0.584-0.939h-0.017V88.798z"/>
		<path id="XMLID_1306_" style="fill:#F0F0F0;" d="M214.842,79.527h-0.011l12.506-31.887h28.114l12.506,31.887h-0.015
			c1.781,4.987-0.667,10.378-7.371,14.248c-10.592,6.115-27.767,6.115-38.359,0C215.509,89.905,213.061,84.514,214.842,79.527z"/>
		<path style="fill:#E0E0E0;" d="M228.676,85.584c-5.093-8.272,1.422-23.931,6.209-37.004l0.007-0.94h-7.555l-12.506,31.887h0.011
			c-1.781,4.987,0.667,10.378,7.37,14.248c10.593,6.115,27.767,6.115,38.359,0C250.999,97.531,233.768,93.856,228.676,85.584z"/>
		<g>
			<path id="XMLID_1302_" style="fill:#FAFAFA;" d="M251.564,55.276c-5.618,3.243-14.726,3.243-20.344,0
				c-5.617-3.243-5.617-8.502,0-11.745c5.618-3.243,14.726-3.243,20.344,0C257.181,46.774,257.181,52.033,251.564,55.276z"/>
		</g>
		<g>
			<path id="XMLID_1297_" style="fill:#E0E0E0;" d="M241.392,56.04c3.554,0,6.87-0.786,9.336-2.211
				c2.18-1.257,3.379-2.829,3.379-4.426c0-1.598-1.199-3.17-3.379-4.426c-2.467-1.425-5.783-2.211-9.336-2.211
				c-3.554,0-6.87,0.786-9.336,2.211c-2.18,1.256-3.38,2.828-3.38,4.426c0,1.597,1.2,3.169,3.38,4.426
				C234.522,55.254,237.838,56.04,241.392,56.04z"/>
		</g>
	</g>
</g>
<g id="Window">
	<g id="Window_21_">
		<g id="Window_22_">
			<g id="Frame_21_">
				<polygon id="XMLID_1395_" style="fill:#FAFAFA;" points="143.756,44.287 146.045,45.566 146.045,136.537 143.756,135.26 				"/>
				<g id="XMLID_1391_">
					<g id="XMLID_1392_">
						<g id="XMLID_1393_">
							<polygon id="XMLID_1394_" style="fill:#FFFFFF;" points="143.756,135.26 143.751,46.891 36.811,108.659 36.829,197.02 
															"/>
						</g>
					</g>
				</g>
				<path id="XMLID_1382_" style="fill:#F0F0F0;" d="M150.293,138.992l0-100.783l-117.73,67.997l0.001,100.784L150.293,138.992z
					 M36.81,199.629l0-90.97l109.234-63.093v90.97L36.81,199.629z"/>
				<polygon id="XMLID_1381_" style="fill:#E0E0E0;" points="146.045,136.537 143.756,135.26 36.829,197.02 36.81,199.629 				"/>
				<polygon id="XMLID_1380_" style="fill:#FAFAFA;" points="111.103,65.74 113.392,64.418 113.392,155.389 111.103,154.112 				"/>
				<polygon id="XMLID_1379_" style="fill:#FAFAFA;" points="63.804,93.074 66.092,91.752 66.092,182.723 63.804,181.445 				"/>
				<polygon id="XMLID_1378_" style="fill:#FAFAFA;" points="32.563,206.989 30.286,205.663 30.286,104.88 32.562,106.205 				"/>
				<polygon id="XMLID_1377_" style="fill:#E0E0E0;" points="30.286,104.88 32.562,106.205 150.293,38.208 148.016,36.883 				"/>
				<polygon id="XMLID_1376_" style="fill:#E0E0E0;" points="36.811,149.026 36.811,151.665 146.051,88.57 143.775,87.244 				"/>
			</g>
			<polygon style="fill:#F0F0F0;" points="36.82,156.566 36.811,151.665 146.051,88.57 146.045,93.479 			"/>
			<g>
				<polygon style="fill:#F0F0F0;" points="66.094,187.63 70.337,185.18 70.336,84.396 66.093,86.846 				"/>
				<polygon style="fill:#F0F0F0;" points="113.383,160.301 117.627,157.852 117.626,57.068 113.383,59.518 				"/>
			</g>
			<polygon style="fill:#FAFAFA;" points="66.092,134.76 63.804,133.441 63.804,93.074 66.092,91.752 			"/>
			<polygon style="fill:#FAFAFA;" points="113.369,107.439 111.08,106.12 111.081,65.753 113.369,64.432 			"/>
		</g>
	</g>
</g>
<g id="Pictures">
	<g id="Picture_19_">
		<g id="Frame_19_">
			<polygon id="XMLID_1340_" style="fill:#FAFAFA;" points="171.766,113.806 172.911,114.485 196.349,100.892 195.204,100.212 			
				"/>
			<g id="XMLID_1336_">
				<g id="XMLID_1337_">
					<g id="XMLID_1338_">
						<polygon id="XMLID_1339_" style="fill:#FFFFFF;" points="195.204,100.212 172.909,113.14 172.864,89.766 195.159,76.847 
													"/>
					</g>
				</g>
			</g>
			<path id="XMLID_1333_" style="fill:#F0F0F0;" d="M198.452,72.432l-27.749,16.093l0.058,29.701l27.749-16.093L198.452,72.432z
				 M196.349,100.892l-23.437,13.593l-0.048-24.719l23.437-13.593L196.349,100.892z"/>
			<polygon id="XMLID_1332_" style="fill:#E0E0E0;" points="196.349,100.892 195.204,100.212 195.159,76.847 196.301,76.173 			"/>
			<polygon id="XMLID_1331_" style="fill:#FAFAFA;" points="198.452,72.432 197.289,71.769 169.541,87.863 170.703,88.525 			"/>
			<polygon id="XMLID_1330_" style="fill:#E0E0E0;" points="169.541,87.863 170.703,88.525 170.761,118.226 169.599,117.564 			"/>
		</g>
		<g id="Land_15_">
			<polygon style="fill:#F0F0F0;" points="194.332,99.515 173.777,111.436 173.766,105.496 178.887,93.605 182.098,96.569 
				180.955,101.551 188.031,86.341 194.32,93.575 			"/>
			<path style="fill:#F0F0F0;" d="M181.887,87.863c-0.84,0.487-1.519,1.668-1.517,2.639c0.002,0.971,0.684,1.363,1.524,0.876
				c0.839-0.487,1.519-1.669,1.517-2.639C183.409,87.768,182.727,87.376,181.887,87.863z"/>
		</g>
	</g>
	<g id="Picture_18_">
		<g id="Frame_17_">
			<polygon id="XMLID_1329_" style="fill:#FAFAFA;" points="171.766,73.917 172.911,74.597 196.349,61.004 195.204,60.324 			"/>
			<g id="XMLID_1325_">
				<g id="XMLID_1326_">
					<g id="XMLID_1327_">
						<polygon id="XMLID_1328_" style="fill:#FFFFFF;" points="195.204,60.324 172.909,73.252 172.864,49.878 195.159,36.958 						
							"/>
					</g>
				</g>
			</g>
			<path id="XMLID_1322_" style="fill:#F0F0F0;" d="M198.452,32.543l-27.749,16.093l0.058,29.701l27.749-16.093L198.452,32.543z
				 M196.349,61.004l-23.437,13.593l-0.048-24.719l23.437-13.593L196.349,61.004z"/>
			<polygon id="XMLID_1321_" style="fill:#E0E0E0;" points="196.349,61.004 195.204,60.324 195.159,36.958 196.301,36.285 			"/>
			<polygon id="XMLID_1320_" style="fill:#FAFAFA;" points="198.452,32.543 197.289,31.881 169.541,47.974 170.703,48.636 			"/>
			<polygon id="XMLID_1298_" style="fill:#E0E0E0;" points="169.541,47.974 170.703,48.636 170.761,78.338 169.599,77.675 			"/>
		</g>
		<g id="Land_13_">
			<polygon style="fill:#F0F0F0;" points="194.332,59.627 173.777,71.548 173.766,65.608 178.887,53.717 182.098,56.681 
				180.955,61.663 188.031,46.453 194.32,53.687 			"/>
			<path style="fill:#F0F0F0;" d="M181.887,47.974c-0.84,0.487-1.519,1.669-1.517,2.639c0.002,0.971,0.684,1.363,1.524,0.876
				c0.84-0.487,1.519-1.668,1.517-2.639C183.409,47.88,182.727,47.488,181.887,47.974z"/>
		</g>
	</g>
</g>
<g id="Device">
	<g id="Device_6_">
		<g id="Case">
			<g>
				<path style="fill:#BA68C8;" d="M300.795,275.627l4.471-2.581c0,0,23.747-77.468,25.958-81.958
					c2.211-4.49-1.786-6.78-6.063-4.311L102.245,315.311c-4.276,2.469-5.621,5.864-9.423,13.251
					c-3.803,7.388-25.248,78.571-25.248,78.571c-0.317,1.658,0.449,3.334,1.91,4.179l50.755,29.396L353.4,306.099L300.795,275.627z"
					/>
				<path style="opacity:0.35;fill:#FFFFFF;" d="M300.795,275.627l4.471-2.581c0,0,23.747-77.468,25.958-81.958
					c2.211-4.49-1.786-6.78-6.063-4.311L102.245,315.311c-4.276,2.469-5.621,5.864-9.423,13.251
					c-3.803,7.388-25.248,78.571-25.248,78.571c-0.317,1.658,0.449,3.334,1.91,4.179l50.755,29.396L353.4,306.099L300.795,275.627z"
					/>
				<path style="fill:#BA68C8;" d="M95.62,330.35c-2.892,5.6-25.22,78.296-25.22,78.296l237.689-137.23
					c0,0,23.575-73.886,25.933-78.541c2.358-4.654-1.786-6.78-6.062-4.311L105.043,317.098
					C100.767,319.567,98.512,324.75,95.62,330.35z"/>
				<path style="opacity:0.15;" d="M95.62,330.35c-2.892,5.6-25.22,78.296-25.22,78.296l237.689-137.23
					c0,0,23.575-73.886,25.933-78.541c2.358-4.654-1.786-6.78-6.062-4.311L105.043,317.098
					C100.767,319.567,98.512,324.75,95.62,330.35z"/>
				<polygon style="fill:#BA68C8;" points="303.563,274.036 70.4,408.646 122.035,438.464 355.197,303.855 				"/>
			</g>
			<path id="XMLID_1318_" style="fill:#BA68C8;" d="M319.798,104.266L95.161,233.724c-4.926,2.844-6.463,7.447-5.594,13.514
				l26.58,186.561c0.869,6.067,5.701,9.616,10.627,6.772l222.648-128.492c4.926-2.844,8.215-10.067,7.346-16.134L330.289,110.1
				C329.421,104.034,324.724,101.422,319.798,104.266z"/>
			<path id="XMLID_1317_" style="opacity:0.35;fill:#FFFFFF;" d="M319.798,104.266L95.161,233.724
				c-4.926,2.844-6.463,7.447-5.594,13.514l26.58,186.561c0.869,6.067,5.701,9.616,10.627,6.772l222.648-128.492
				c4.926-2.844,8.215-10.067,7.346-16.134L330.289,110.1C329.421,104.034,324.724,101.422,319.798,104.266z"/>
		</g>
		<g id="Tablet">
			<g>
				<path id="XMLID_1316_" style="fill:#455A64;" d="M334.937,108.226c-1.767-0.69-3.884-0.498-6.056,0.752L106.227,237.48
					c-2.361,1.363-4.343,3.743-5.681,6.519l-7.188-3.046c1.58-3.447,4.336-4.707,6.695-6.082l222.641-128.501
					c2.274-1.301,4.48-1.45,6.29-0.645l-0.002-0.012L334.937,108.226z"/>
			</g>
			<g>
				<path id="XMLID_1315_" style="fill:#263238;" d="M123.37,442.447l-0.002-0.012c-2.207-0.907-3.847-3.197-4.325-6.531
					L92.702,251.002c-0.543-3.79-0.72-7.19,0.657-10.052l7.188,3.046c-0.19,0.395-0.364,0.801-0.536,1.218
					c-0.13,0.334-0.246,0.667-0.349,0.999c-0.021,0.048-0.04,0.107-0.046,0.154c-0.137,0.381-0.245,0.772-0.339,1.163
					c-0.106,0.403-0.197,0.817-0.263,1.219c-0.065,0.308-0.103,0.614-0.128,0.92c-0.18,1.321-0.18,2.658,0.004,3.94l26.477,185.839
					c0.482,3.37,2.153,5.682,4.386,6.576L123.37,442.447z"/>
			</g>
			<g>
				<path id="XMLID_7049_" style="fill:#37474F;" d="M328.878,108.99L104.241,238.447c-4.926,2.844-6.463,7.448-5.594,13.514
					l26.715,187.498c0.869,6.067,5.566,8.679,10.492,5.835l222.648-128.492c4.926-2.844,8.215-10.067,7.346-16.134L339.37,114.824
					C338.501,108.758,333.803,106.146,328.878,108.99z"/>
			</g>
			<g>
				<path id="XMLID_7048_" style="fill:#263238;" d="M344.831,315.948L146.095,430.634c-2.552,1.474-4.987,0.12-5.437-3.024
					l-26.216-183.92c-0.45-3.144,1.254-6.887,3.807-8.361l198.736-114.687c2.553-1.474,4.987-0.12,5.437,3.024l26.216,183.92
					C349.088,310.731,347.384,314.474,344.831,315.948z"/>
				<path style="fill:#FAFAFA;" d="M114.442,243.691l26.216,183.92c0.018,0.125,0.044,0.243,0.068,0.363l198.736-114.687
					c2.553-1.474,4.257-5.217,3.807-8.361l-26.285-184.282L118.249,235.33C115.696,236.804,113.992,240.547,114.442,243.691z"/>
			</g>
			<g>
				<path id="XMLID_7045_" style="fill:#263238;" d="M124.579,357.576c0.226,1.581-0.631,3.464-1.915,4.206
					c-1.284,0.741-2.509,0.06-2.735-1.521c-0.226-1.581,0.631-3.464,1.915-4.206C123.128,355.313,124.352,355.994,124.579,357.576z"
					/>
				<path id="XMLID_7042_" style="fill:#263238;" d="M115.887,314.509L115.887,314.509c-0.998,0.576-1.665,2.04-1.489,3.27
					l4.344,30.282c0.176,1.229,1.128,1.759,2.126,1.183l0,0c0.998-0.576,1.665-2.04,1.489-3.27l-4.344-30.283
					C117.837,314.462,116.885,313.933,115.887,314.509z"/>
			</g>
		</g>
		<g style="opacity:0.5;">
			<polygon style="fill:#BA68C8;" points="145.215,412.732 139.886,375.519 181.826,267.464 261.824,301.57 248.931,286.658 
				285.514,235.966 330.032,256.342 336.605,302.249 			"/>
			<path style="fill:#BA68C8;" d="M256.46,222.514c1.046,7.303,6.056,10.819,11.191,7.854c5.135-2.965,8.451-11.289,7.405-18.593
				c-1.046-7.303-6.056-10.82-11.191-7.854C258.729,206.887,255.414,215.211,256.46,222.514z"/>
		</g>
	</g>
</g>
<g id="Window_1_">
	<g id="Video_Window">
		<g id="Window_4_">
			<path style="opacity:0.9;fill:#455A64;" d="M345.009,69.749c-0.031-0.12-0.061-0.228-0.119-0.335
				c0.011-0.025-0.007-0.048-0.025-0.072c-0.031-0.12-0.089-0.227-0.145-0.322c-0.08-0.167-0.187-0.32-0.32-0.46
				c-0.038-0.071-0.103-0.129-0.168-0.187c-0.049-0.047-0.083-0.094-0.145-0.128c-0.098-0.093-0.193-0.162-0.315-0.229
				c0,0-0.016-0.011-0.032-0.023c-0.123-0.068-0.258-0.123-0.391-0.166c-0.818-0.282-1.804-0.157-2.836,0.432L140.205,183.508
				c-2.194,1.267-3.71,4.204-3.124,8.298l25.692,179.433c0.278,1.943,2.897,3.056,4.716,2.009l200.189-115.255
				c2.194-1.267,3.712-4.192,3.375-6.544l-25.95-181.243C345.081,70.05,345.044,69.893,345.009,69.749z"/>
			<g id="XMLID_318_">
				<g id="XMLID_906_">
					<path style="fill:#BA68C8;" d="M343.348,67.827c-0.818-0.282-1.804-0.157-2.837,0.432L140.205,183.508
						c-2.194,1.267-3.71,4.204-3.376,6.544l1.021,7.129l-5.862-2.527l-1.009-7.044c-0.335-2.34,1.169-5.265,3.363-6.532
						l200.321-115.25c1.135-0.665,2.229-0.722,3.075-0.344C338.569,65.851,342.376,67.454,343.348,67.827z"/>
				</g>
				<path id="XMLID_448_" style="fill:#BA68C8;" d="M345.09,70.182c-0.349-2.32-2.391-3.181-4.578-1.918L140.203,183.512
					c-2.197,1.269-3.706,4.197-3.371,6.54l1.026,7.134L346.117,77.357L345.09,70.182z"/>
				<path id="XMLID_441_" style="opacity:0.3;fill:#FFFFFF;" d="M340.509,68.262L140.208,183.51
					c-1.087,0.637-2.023,1.675-2.626,2.851l-5.828-2.481c0.605-1.164,1.518-2.192,2.595-2.805L334.66,65.826
					c1.138-0.663,2.228-0.717,3.08-0.345c0.826,0.373,4.629,1.961,5.591,2.34C342.533,67.54,341.536,67.674,340.509,68.262z"/>
				<path id="XMLID_319_" style="opacity:0.15;" d="M131.984,194.67l-1.008-7.062c-0.171-1.191,0.149-2.529,0.777-3.729l5.84,2.469
					c-0.629,1.188-0.927,2.514-0.756,3.704l1.021,7.132L131.984,194.67z"/>
			</g>
			<g id="XMLID_305_">
				<path id="XMLID_316_" style="fill:#FFFFFF;" d="M329.291,78.421c-0.835,0.482-1.374,1.835-1.204,3.023
					c0.17,1.187,0.985,1.759,1.819,1.277c0.835-0.482,1.374-1.835,1.204-3.023C330.941,78.51,330.126,77.939,329.291,78.421z"/>
				<path id="XMLID_314_" style="fill:#FFFFFF;" d="M334.733,75.273c-0.835,0.482-1.374,1.836-1.204,3.023
					c0.17,1.187,0.985,1.759,1.82,1.277c0.835-0.482,1.374-1.835,1.204-3.023S335.569,74.791,334.733,75.273z"/>
				<path id="XMLID_312_" style="fill:#FFFFFF;" d="M340.176,72.125c-0.835,0.482-1.374,1.835-1.204,3.023
					c0.17,1.187,0.984,1.759,1.819,1.277c0.835-0.482,1.374-1.836,1.204-3.023C341.826,72.215,341.011,71.643,340.176,72.125z"/>
			</g>
			<path style="opacity:0.9;fill:#263238;" d="M164.63,373.398l-0.238-0.098l-4.836-2.056c-1.308-0.546-2.279-1.573-2.644-2.757
				c-0.053-0.178-0.093-0.356-0.119-0.535l-24.812-173.295l5.868,2.53l24.923,174.053c0.049,0.345,0.179,0.641,0.331,0.895
				C163.647,373.042,164.63,373.398,164.63,373.398z"/>
		</g>
		<g id="Bar">
			<path style="fill:#BA68C8;" d="M371.053,251.449l-1.766-12.338L161.067,359.327l1.706,11.912
				c0.278,1.943,2.897,3.056,4.716,2.009l200.189-115.255C369.871,256.727,371.389,253.801,371.053,251.449z"/>
			<g>
				<path style="fill:#BA68C8;" d="M163.104,372.134c-0.152-0.254-0.282-0.551-0.331-0.896l-1.706-11.913l-5.868-2.513l1.595,11.139
					c0.026,0.179,0.065,0.357,0.119,0.535c0.365,1.184,1.337,2.211,2.644,2.757l4.836,2.056l0.167,0.069
					C164.334,373.273,163.564,372.903,163.104,372.134z"/>
				<path style="opacity:0.15;" d="M163.104,372.134c-0.152-0.254-0.282-0.551-0.331-0.896l-1.706-11.913l-5.868-2.513l1.595,11.139
					c0.026,0.179,0.065,0.357,0.119,0.535c0.365,1.184,1.337,2.211,2.644,2.757l4.836,2.056l0.167,0.069
					C164.334,373.273,163.564,372.903,163.104,372.134z"/>
			</g>
			<g>
				<g>
					<path style="fill:#FFFFFF;" d="M190.151,353.498l-0.667-4.659c-0.048-0.334,0.153-0.701,0.39-0.712l4.777-0.236
						c0.316-0.016,0.401,0.576,0.129,0.9l-4.109,4.895C190.466,353.929,190.199,353.832,190.151,353.498z"/>
				</g>
				<g>
					<g>
						<path style="fill:#FFFFFF;" d="M200.5,347.524l-0.667-4.659c-0.048-0.334,0.153-0.701,0.39-0.712l4.777-0.236
							c0.316-0.016,0.401,0.576,0.129,0.9l-4.11,4.895C200.815,347.954,200.548,347.858,200.5,347.524z"/>
					</g>
					<g>
						<path style="fill:#FFFFFF;" d="M206.026,344.853L206.026,344.853c-0.187,0.108-0.366,0.009-0.399-0.222l-0.685-4.783
							c-0.033-0.231,0.092-0.506,0.28-0.614l0,0c0.188-0.108,0.366-0.009,0.399,0.222l0.685,4.784
							C206.339,344.47,206.213,344.745,206.026,344.853z"/>
					</g>
				</g>
				<g>
					<g>
						<path style="fill:#FFFFFF;" d="M174.572,362.493l-0.667-4.659c-0.048-0.334-0.315-0.431-0.519-0.188l-4.109,4.895
							c-0.272,0.324-0.187,0.916,0.129,0.9l4.777-0.236C174.42,363.194,174.62,362.827,174.572,362.493z"/>
					</g>
					<g>
						<path style="fill:#FFFFFF;" d="M169.184,366.124L169.184,366.124c0.187-0.108,0.313-0.383,0.28-0.614l-0.685-4.783
							c-0.033-0.231-0.212-0.33-0.399-0.222l0,0c-0.187,0.108-0.313,0.383-0.279,0.614l0.685,4.784
							C168.818,366.133,168.996,366.232,169.184,366.124z"/>
					</g>
				</g>
				<g>
					<path style="fill:#FFFFFF;" d="M347.639,264.309c-0.077,0.003-0.157-0.011-0.231-0.042c-0.148-0.063-0.252-0.186-0.271-0.323
						l-0.808-5.644c-0.02-0.137,0.047-0.267,0.176-0.341l8.11-4.682c0.128-0.074,0.299-0.081,0.446-0.018
						c0.148,0.063,0.252,0.186,0.271,0.323l0.808,5.644c0.02,0.137-0.047,0.267-0.176,0.341l-8.11,4.682
						C347.791,264.285,347.716,264.306,347.639,264.309z M347.255,258.485l0.681,4.758l7.279-4.203l-0.681-4.758L347.255,258.485z"
						/>
				</g>
				<g>
					<path style="fill:#FFFFFF;" d="M359.994,253.327c-0.247,0.01-0.472-0.154-0.502-0.365l-0.324-2.264
						c-0.02-0.137,0.047-0.267,0.176-0.341l1.963-1.133c0.199-0.115,0.48-0.062,0.63,0.115c0.149,0.178,0.109,0.416-0.089,0.53
						l-1.755,1.013l0.293,2.042C360.417,253.137,360.241,253.317,359.994,253.327z"/>
				</g>
				<g>
					<path style="fill:#FFFFFF;" d="M365.337,250.243c-0.247,0.01-0.472-0.154-0.502-0.365l-0.229-1.6l-1.34,0.774
						c-0.199,0.115-0.481,0.063-0.63-0.116c-0.149-0.178-0.11-0.415,0.089-0.53l1.963-1.133c0.128-0.074,0.299-0.081,0.446-0.018
						c0.148,0.063,0.252,0.186,0.271,0.323l0.324,2.264C365.759,250.053,365.584,250.233,365.337,250.243z"/>
				</g>
				<g>
					<path style="fill:#FFFFFF;" d="M363.987,255.655c-0.155,0.006-0.315-0.057-0.415-0.176c-0.149-0.178-0.11-0.416,0.089-0.53
						l1.755-1.013l-0.292-2.043c-0.03-0.212,0.146-0.392,0.392-0.402c0.247-0.01,0.472,0.154,0.502,0.365l0.324,2.264
						c0.02,0.137-0.047,0.267-0.176,0.341l-1.963,1.133C364.138,255.632,364.063,255.652,363.987,255.655z"/>
				</g>
				<g>
					<path style="fill:#FFFFFF;" d="M360.607,257.606c-0.077,0.003-0.157-0.011-0.231-0.042c-0.148-0.063-0.252-0.186-0.271-0.323
						l-0.324-2.264c-0.03-0.212,0.145-0.392,0.392-0.402c0.247-0.01,0.472,0.154,0.502,0.365l0.229,1.6l1.34-0.774
						c0.199-0.115,0.48-0.063,0.63,0.116c0.149,0.178,0.11,0.415-0.089,0.53l-1.963,1.133
						C360.759,257.582,360.684,257.603,360.607,257.606z"/>
				</g>
				<g id="XMLID_282_">
					<path style="fill:#FFFFFF;" d="M335.911,268.323l0.806-0.35c0.05-0.022,0.106,0,0.127,0.047
						c0.08,0.178,0.176,0.337,0.285,0.476c0.027,0.035,0.022,0.139-0.013,0.234l-0.348,0.941c-0.035,0.095-0.035,0.189,0,0.208
						l0.748,0.416c0.035,0.02,0.103-0.036,0.151-0.124l0.477-0.87c0.048-0.088,0.121-0.155,0.163-0.151
						c0.166,0.014,0.339,0.005,0.516-0.031c0.046-0.009,0.096,0.027,0.11,0.084l0.226,0.923c0.014,0.057,0.067,0.079,0.119,0.049
						l0.865-0.499c0.052-0.03,0.091-0.111,0.087-0.182l-0.051-0.997c-0.004-0.07,0.038-0.169,0.093-0.225
						c0.137-0.139,0.266-0.29,0.386-0.452c0.054-0.073,0.128-0.125,0.165-0.111l0.73,0.263c0.038,0.013,0.103-0.051,0.145-0.145
						l0.459-1.008c0.043-0.093,0.051-0.19,0.019-0.215l-0.626-0.491c-0.032-0.025-0.039-0.122-0.018-0.213
						c0.046-0.203,0.079-0.408,0.098-0.612c0.008-0.082,0.055-0.178,0.108-0.216l0.755-0.549c0.053-0.039,0.089-0.122,0.08-0.185
						l-0.153-1.066c-0.009-0.064-0.057-0.098-0.107-0.076l-0.806,0.35c-0.05,0.022-0.106,0-0.126-0.047
						c-0.08-0.178-0.176-0.337-0.285-0.476c-0.027-0.035-0.022-0.139,0.013-0.234l0.348-0.941c0.035-0.095,0.035-0.189,0-0.208
						l-0.748-0.416c-0.035-0.02-0.103,0.036-0.151,0.124l-0.477,0.87c-0.048,0.088-0.121,0.155-0.162,0.152
						c-0.166-0.014-0.339-0.005-0.516,0.031c-0.046,0.009-0.096-0.027-0.11-0.084l-0.226-0.923
						c-0.014-0.057-0.067-0.079-0.119-0.049l-0.865,0.5c-0.052,0.03-0.09,0.111-0.087,0.181l0.051,0.997
						c0.004,0.07-0.038,0.169-0.093,0.225c-0.137,0.139-0.266,0.29-0.386,0.452c-0.054,0.073-0.128,0.125-0.165,0.111l-0.73-0.263
						c-0.038-0.014-0.103,0.051-0.145,0.145l-0.459,1.008c-0.043,0.094-0.051,0.19-0.018,0.215l0.626,0.492
						c0.032,0.025,0.038,0.122,0.018,0.213c-0.046,0.203-0.079,0.408-0.098,0.612c-0.008,0.082-0.055,0.178-0.108,0.216
						l-0.755,0.548c-0.053,0.039-0.089,0.122-0.08,0.185l0.152,1.066C335.814,268.31,335.862,268.344,335.911,268.323z
						 M337.65,266.604c-0.142-0.994,0.397-2.178,1.204-2.644c0.807-0.466,1.577-0.038,1.72,0.956
						c0.142,0.994-0.397,2.178-1.204,2.644C338.563,268.027,337.793,267.599,337.65,266.604z"/>
				</g>
				<g>
					<path style="fill:#FFFFFF;" d="M180.949,359.337l-0.869,0.502c-0.106,0.061-0.206,0.005-0.225-0.125l-0.737-5.145
						c-0.019-0.13,0.052-0.285,0.158-0.346l0.869-0.502c0.106-0.061,0.206-0.005,0.225,0.125l0.736,5.145
						C181.126,359.121,181.055,359.276,180.949,359.337z"/>
					<path style="fill:#FFFFFF;" d="M183.865,357.654l-0.87,0.502c-0.106,0.061-0.206,0.005-0.225-0.125l-0.737-5.145
						c-0.019-0.13,0.052-0.285,0.157-0.346l0.87-0.502c0.106-0.061,0.206-0.005,0.225,0.125l0.737,5.145
						C184.041,357.438,183.97,357.593,183.865,357.654z"/>
				</g>
			</g>
		</g>
	</g>
</g>
<g id="Buttons_2">
	<g id="Buttons">
		<g>
			<g>
				<path style="fill:#E0E0E0;" d="M270.977,427.855l-16.538-9.548c-1.185-0.684-0.986-1.75,0.387-2.069l27.693-6.44
					c1.834-0.426,3.935,0.786,3.196,1.845l-11.154,15.988C274.008,428.424,272.163,428.539,270.977,427.855z"/>
			</g>
			<g>
				<g>
					<path style="fill:#E0E0E0;" d="M308.262,406.329l-16.538-9.548c-1.185-0.684-0.986-1.75,0.387-2.069l27.693-6.44
						c1.834-0.427,3.935,0.786,3.196,1.845l-11.154,15.988C311.292,406.898,309.447,407.013,308.262,406.329z"/>
				</g>
				<g>
					<path style="fill:#E0E0E0;" d="M333.824,393.539L333.824,393.539c-0.819,0.473-2.148,0.473-2.968,0l-16.98-9.803
						c-0.819-0.473-0.82-1.24,0-1.714l0,0c0.82-0.473,2.148-0.473,2.968,0l16.98,9.803
						C334.644,392.299,334.644,393.066,333.824,393.539z"/>
				</g>
			</g>
			<g>
				<g>
					<path style="fill:#E0E0E0;" d="M222.796,455.673l-16.538-9.548c-1.185-0.684-3.03-0.569-3.583,0.223l-11.154,15.988
						c-0.739,1.059,1.362,2.272,3.196,1.845l27.693-6.44C223.781,457.422,223.981,456.357,222.796,455.673z"/>
				</g>
				<g>
					<path style="fill:#E0E0E0;" d="M200.643,470.431L200.643,470.431c0.819-0.473,0.819-1.24,0-1.713l-16.98-9.803
						c-0.82-0.473-2.149-0.473-2.968,0l0,0c-0.82,0.473-0.82,1.24,0,1.713l16.98,9.803
						C198.495,470.904,199.823,470.905,200.643,470.431z"/>
				</g>
			</g>
			<g>
				<path style="fill:#E0E0E0;" d="M244.138,445.341l-3.801,2.195c-0.462,0.266-1.21,0.266-1.671,0l-18.262-10.544
					c-0.462-0.266-0.462-0.698,0-0.965l3.801-2.195c0.462-0.266,1.21-0.266,1.671,0l18.262,10.544
					C244.6,444.642,244.6,445.074,244.138,445.341z"/>
				<path style="fill:#E0E0E0;" d="M256.883,437.983l-3.801,2.195c-0.462,0.266-1.21,0.266-1.671,0l-18.262-10.544
					c-0.462-0.266-0.462-0.698,0-0.965l3.801-2.195c0.462-0.266,1.21-0.266,1.671,0l18.262,10.544
					C257.344,437.284,257.344,437.716,256.883,437.983z"/>
			</g>
		</g>
		<g>
			<path style="fill:#E0E0E0;" d="M192.267,481.538c-1.659,0-3.317-0.364-4.58-1.093l-23.836-13.762
				c-1.318-0.761-2.044-1.803-2.044-2.933s0.726-2.172,2.044-2.933l153.821-88.809c2.525-1.458,6.635-1.458,9.16,0l23.836,13.762
				c1.318,0.761,2.044,1.803,2.044,2.933c0,1.13-0.726,2.172-2.044,2.933l-153.821,88.809
				C195.585,481.174,193.926,481.538,192.267,481.538z M322.252,371.9c-1.478,0-2.955,0.325-4.08,0.974l-153.821,88.809
				c-0.995,0.575-1.544,1.309-1.544,2.067s0.548,1.492,1.544,2.067l23.836,13.762c2.25,1.298,5.91,1.298,8.16,0l153.821-88.809
				c0.995-0.575,1.544-1.309,1.544-2.067s-0.549-1.492-1.544-2.067l-23.836-13.762C325.207,372.225,323.729,371.9,322.252,371.9z"/>
		</g>
	</g>
</g>
<g id="Button_1">
	<g id="Pause">
		<g>
			<path style="fill:#BA68C8;" d="M242.237,269.444c-4.363,0.179-8.534-0.538-12.373-2.169
				c-9.196-3.906-15.185-12.514-16.863-24.236c-3.34-23.326,11.759-52.567,33.657-65.185l0,0c11.011-6.34,22.141-7.684,31.341-3.774
				c9.194,3.906,15.182,12.512,16.86,24.234c3.34,23.328-11.758,52.569-33.657,65.185
				C254.788,267.196,248.328,269.195,242.237,269.444z M249.411,181.144c-20.732,11.944-35.024,39.628-31.862,61.71
				c1.47,10.271,6.479,17.71,14.106,20.949c7.633,3.246,17.145,1.969,26.796-3.592c20.732-11.944,35.024-39.626,31.863-61.71
				c-1.47-10.268-6.479-17.71-14.103-20.949C268.577,174.311,259.062,175.583,249.411,181.144L249.411,181.144z"/>
			<g>
				<path style="fill:#BA68C8;" d="M249.554,245.033l-6.172,3.564c-0.749,0.433-1.464,0.035-1.596-0.888l-5.229-36.518
					c-0.132-0.923,0.368-2.022,1.118-2.454l6.172-3.564c0.749-0.433,1.464-0.035,1.596,0.888l5.229,36.518
					C250.803,243.502,250.303,244.601,249.554,245.033z"/>
				<path style="fill:#BA68C8;" d="M270.247,233.086l-6.172,3.564c-0.749,0.433-1.464,0.035-1.596-0.888l-5.229-36.518
					c-0.132-0.923,0.368-2.022,1.118-2.454l6.172-3.564c0.749-0.433,1.464-0.035,1.596,0.888l5.229,36.518
					C271.496,231.555,270.996,232.654,270.247,233.086z"/>
			</g>
		</g>
		<g style="opacity:0.3;">
			<path style="fill:#FFFFFF;" d="M242.237,269.444c-4.363,0.179-8.534-0.538-12.373-2.169
				c-9.196-3.906-15.185-12.514-16.863-24.236c-3.34-23.326,11.759-52.567,33.657-65.185l0,0c11.011-6.34,22.141-7.684,31.341-3.774
				c9.194,3.906,15.182,12.512,16.86,24.234c3.34,23.328-11.758,52.569-33.657,65.185
				C254.788,267.196,248.328,269.195,242.237,269.444z M249.411,181.144c-20.732,11.944-35.024,39.628-31.862,61.71
				c1.47,10.271,6.479,17.71,14.106,20.949c7.633,3.246,17.145,1.969,26.796-3.592c20.732-11.944,35.024-39.626,31.863-61.71
				c-1.47-10.268-6.479-17.71-14.103-20.949C268.577,174.311,259.062,175.583,249.411,181.144L249.411,181.144z"/>
			<g>
				<path style="fill:#FFFFFF;" d="M249.554,245.033l-6.172,3.564c-0.749,0.433-1.464,0.035-1.596-0.888l-5.229-36.518
					c-0.132-0.923,0.368-2.022,1.118-2.454l6.172-3.564c0.749-0.433,1.464-0.035,1.596,0.888l5.229,36.518
					C250.803,243.502,250.303,244.601,249.554,245.033z"/>
				<path style="fill:#FFFFFF;" d="M270.247,233.086l-6.172,3.564c-0.749,0.433-1.464,0.035-1.596-0.888l-5.229-36.518
					c-0.132-0.923,0.368-2.022,1.118-2.454l6.172-3.564c0.749-0.433,1.464-0.035,1.596,0.888l5.229,36.518
					C271.496,231.555,270.996,232.654,270.247,233.086z"/>
			</g>
		</g>
	</g>
</g>
<g id="Plants">
	<g id="Plant_4_">
		<g id="Pot_15_">
			<g id="Pot_16_">
				<path id="XMLID_1396_" style="fill:#37474F;" d="M87.929,432.068l-45.003-0.009l4.653,19.385h0.006
					c0.355,2.337,2.075,4.618,5.174,6.408c6.999,4.041,18.346,4.041,25.345,0c3.335-1.925,5.061-4.421,5.218-6.944L87.929,432.068z"
					/>
				<path style="fill:#263238;" d="M82.441,445.354c1.02-0.589,1.91-1.223,2.701-1.886l2.532-10.356
					c-1.156,1.303-2.668,2.527-4.553,3.617c-9.494,5.48-24.709,5.618-34.525,0.446l1.144-4.618l-0.351-0.488l-6.46-0.001
					l4.651,19.376h0.006c0.355,2.337,2.075,4.618,5.174,6.407c4.986,2.879,12.172,3.695,18.427,2.473
					c-11.212,0.836-18.906-4.067-20.059-8.586c-0.46-1.803-1.263-5.793-1.263-5.793C59.229,450.702,73.494,450.515,82.441,445.354z"
					/>
				<path id="XMLID_1375_" style="fill:#455A64;" d="M90.27,426.334c-0.232,1.19-0.733,2.366-1.502,3.498
					c-1.212,1.829-3.099,3.542-5.646,5.015c-9.768,5.639-25.611,5.639-35.38,0c-2.547-1.473-4.434-3.186-5.646-5.015
					c-0.762-1.132-1.263-2.308-1.495-3.498h-0.007c-0.871-4.238,1.517-8.658,7.148-11.909c9.768-5.646,25.611-5.646,35.38,0
					C88.753,417.676,91.14,422.095,90.27,426.334z"/>
				<path id="XMLID_1344_" style="fill:#37474F;" d="M88.767,429.832c-1.212,1.829-3.099,3.542-5.646,5.015
					c-9.768,5.639-25.611,5.639-35.38,0c-2.547-1.473-4.434-3.186-5.646-5.015c-0.762-1.132-1.263-2.308-1.495-3.498h-0.007
					l1.11,7.628c0.508,3.07,2.794,6.06,6.873,8.411c9.311,5.37,24.399,5.37,33.711,0c4.021-2.322,6.307-5.276,6.851-8.302
					l0.058-0.392l1.074-7.344C90.037,427.524,89.536,428.7,88.767,429.832z"/>
				<path id="XMLID_1305_" style="fill:#263238;" d="M80.174,416.123c-8.143-4.703-21.344-4.703-29.479,0
					c-4.608,2.663-6.604,6.256-6.002,9.725c0.465,2.663,2.467,5.254,6.002,7.294c8.136,4.703,21.337,4.703,29.479,0
					c3.527-2.039,5.53-4.63,5.994-7.286C86.779,422.378,84.783,418.786,80.174,416.123z"/>
				<path id="XMLID_1304_" style="fill:#FAFAFA;" d="M46.069,429.071c1.018,1.481,2.55,2.872,4.626,4.07
					c8.136,4.703,21.337,4.703,29.479,0c2.073-1.198,3.604-2.59,4.621-4.071c-0.06-2.816-1.946-5.617-5.666-7.767
					c-7.566-4.37-19.832-4.37-27.391,0C48.017,423.454,46.131,426.258,46.069,429.071z"/>
			</g>
			<g id="Plants_4_">
				<g id="XMLID_1299_">
					<path style="fill:#BA68C8;" d="M84.795,341.315l-15.875,13.62l15.556-7.923c0,0,0.421,7.952-2.171,15.11
						c0,0-7.619,4.953-11.993,9.219l11.956-5.266c0,0,1.141,7.97-1.716,20.307c-0.748,3.231-4.104,9.474-6.197,14.123
						c-0.944,2.108-2.031,4.195-3.291,6.226c-0.07,0.129-0.15,0.25-0.229,0.38c-2.839-1.48-5.784-2.911-8.835-4.284
						c-2.111-4.031-5.047-14.071-6.288-22.338c-4.724-31.649,18.604-50.794,37.69-57.649
						C93.405,322.84,87.088,331.421,84.795,341.315z"/>
					<path style="opacity:0.45;fill:#FFFFFF;" d="M84.795,341.315l-15.875,13.62l15.556-7.923c0,0,0.421,7.952-2.171,15.11
						c0,0-7.619,4.953-11.993,9.219l11.956-5.266c0,0,1.141,7.97-1.716,20.307c-0.748,3.231-4.104,9.474-6.197,14.123
						c-0.944,2.108-2.031,4.195-3.291,6.226c-0.07,0.129-0.15,0.25-0.229,0.38c-2.839-1.48-5.784-2.911-8.835-4.284
						c-2.111-4.031-5.047-14.071-6.288-22.338c-4.724-31.649,18.604-50.794,37.69-57.649
						C93.405,322.84,87.088,331.421,84.795,341.315z"/>
					<path style="fill:#FFFFFF;" d="M71.154,343.174c-3.214,3.49-4.999,7.992-6.328,12.472c-1.313,4.515-2.074,9.18-2.375,13.864
						c-0.615,9.364,0.827,18.888,4.534,27.464l0.004,0.01c0.101,0.234-0.007,0.505-0.24,0.606c-0.234,0.101-0.505-0.007-0.606-0.24
						c-0.001-0.002-0.002-0.005-0.003-0.007c-3.636-8.803-4.92-18.449-4.15-27.865c0.381-4.711,1.222-9.386,2.614-13.899
						C66.011,351.105,67.881,346.612,71.154,343.174z"/>
				</g>
				<g>
					<path style="fill:#BA68C8;" d="M16.348,353.774c0,0,0.006,0.013,0.022,0.028c0.339,0.586,5.897,10.207,13.463,28.352
						l16.905,5.88l-13.23-0.029l4.959,12.133l16.498,6.573l-13.757-0.191c0,0,1.403,13.707,10.012,20.842
						c4.752,3.939,7.031,4.415,9.107,3.626c2.535-0.964,4.289-4.517,6.203-9.939c1.914-5.422,1.969-17.049-1.363-28.942
						c-0.885-3.163-2.278-6.179-4.055-9.026C50.941,366.733,28.212,355.697,16.348,353.774z"/>
					<path style="opacity:0.35;fill:#FFFFFF;" d="M16.348,353.774c0,0,0.006,0.013,0.022,0.028
						c0.339,0.586,5.897,10.207,13.463,28.352l16.905,5.88l-13.23-0.029l4.959,12.133l16.498,6.573l-13.757-0.191
						c0,0,1.403,13.707,10.012,20.842c4.752,3.939,7.031,4.415,9.107,3.626c2.535-0.964,4.289-4.517,6.203-9.939
						c1.914-5.422,1.969-17.049-1.363-28.942c-0.885-3.163-2.278-6.179-4.055-9.026C50.941,366.733,28.212,355.697,16.348,353.774z"
						/>
					<path style="fill:#FFFFFF;" d="M33.545,362.69c8.299,5.54,15.855,12.463,21.245,21c2.719,4.235,4.823,8.889,6.109,13.771
						c1.226,4.894,1.68,9.974,1.255,14.969c-0.002,0.027-0.026,0.047-0.053,0.045c-0.025-0.002-0.044-0.024-0.045-0.049
						c-0.136-5-0.732-9.95-2.102-14.709c-1.291-4.773-3.287-9.353-5.83-13.614c-5.165-8.51-12.505-15.568-20.634-21.332
						c-0.022-0.016-0.028-0.046-0.012-0.068C33.492,362.681,33.522,362.676,33.545,362.69z"/>
				</g>
				<path style="fill:#BA68C8;" d="M124.451,359.679L124.451,359.679c-1.563-0.034-3.327,0.046-5.244,0.241
					c-5.749,0.585-12.87,2.203-20.06,4.881c-2.397,0.893-4.801,1.904-7.165,3.033c-1.182,0.565-2.354,1.159-3.509,1.784
					c-5.778,3.122-11.153,6.99-15.369,11.62c-2.084,2.282-3.864,4.768-5.292,7.435c-0.186,0.347-0.387,0.686-0.561,1.04
					c-0.001,0.002-0.002,0.005-0.003,0.007c-0.448,0.916-0.849,1.815-1.228,2.706c-4.431,10.018-4.806,16.972-4.527,24.683
					c0.216,5.981,2.251,12.819,3.415,13.941c0.159,0.154,0.335,0.278,0.521,0.387c1.705,1.087,4.416,0.453,9.486-2.382
					c10.158-5.68,14.146-20.07,14.146-20.07l-14.119-2.398l18.127-3.617l7.363-11.486l-13.548-2.464l18.413-2.832
					c11.166-17.148,18.67-25.948,19.127-26.485C124.443,359.69,124.452,359.679,124.451,359.679L124.451,359.679z"/>
				<path style="opacity:0.35;fill:#FFFFFF;" d="M124.451,359.679L124.451,359.679c-1.563-0.034-3.327,0.046-5.244,0.241
					c-5.749,0.585-12.87,2.203-20.06,4.881c-2.397,0.893-4.801,1.904-7.165,3.033c-1.182,0.565-2.354,1.159-3.509,1.784
					c-5.778,3.122-11.153,6.99-15.369,11.62c-2.084,2.282-3.864,4.768-5.292,7.435c-0.186,0.347-0.387,0.686-0.561,1.04
					c-0.001,0.002-0.002,0.005-0.003,0.007c-0.448,0.916-0.849,1.815-1.228,2.706c-4.431,10.018-4.806,16.972-4.527,24.683
					c0.216,5.981,2.251,12.819,3.415,13.941c0.159,0.154,0.335,0.278,0.521,0.387c1.705,1.087,4.416,0.453,9.486-2.382
					c10.158-5.68,14.146-20.07,14.146-20.07l-14.119-2.398l18.127-3.617l7.363-11.486l-13.548-2.464l18.413-2.832
					c11.166-17.148,18.67-25.948,19.127-26.485C124.443,359.69,124.452,359.679,124.451,359.679L124.451,359.679z"/>
				<path style="opacity:0.35;fill:#FFFFFF;" d="M119.208,359.92c-5.749,0.585-12.87,2.203-20.06,4.881
					c-2.397,0.893-4.801,1.904-7.165,3.033c-1.182,0.565-2.354,1.159-3.509,1.784c-5.778,3.122-11.153,6.99-15.369,11.62
					c-2.084,2.282-3.864,4.768-5.292,7.435c-0.186,0.347-0.387,0.686-0.561,1.04c-0.001,0.002-0.002,0.005-0.003,0.007
					c-0.448,0.916-0.849,1.815-1.228,2.706c-4.431,10.018-4.806,16.972-4.527,24.683c0.216,5.981,2.251,12.819,3.415,13.941
					c0.159,0.154,0.335,0.278,0.521,0.387c0.327,0.209,0.707,0.333,1.118,0.411c-1.252-9.273,3.309-32.786,10.215-42.458
					c7.185-10.062,24.23-24.653,47.662-29.688l-0.019-0.024C122.853,359.648,121.106,359.727,119.208,359.92z"/>
				<path style="fill:#FFFFFF;" d="M66.489,431.852c-0.5-6.849,0.057-13.754,1.331-20.508c1.358-6.731,3.405-13.395,6.804-19.449
					c3.471-6.052,8.462-10.998,13.77-15.378c5.412-4.278,11.339-7.914,17.669-10.589c0.029-0.013,0.063,0.001,0.076,0.031
					c0.012,0.027,0,0.059-0.026,0.074c-6.027,3.263-11.774,6.994-16.988,11.379c-2.634,2.154-5.155,4.452-7.464,6.945
					c-2.334,2.466-4.522,5.089-6.239,8.003c-3.425,5.862-5.577,12.44-7.035,19.099c-1.416,6.679-2.127,13.54-1.782,20.385
					c0.002,0.032-0.022,0.059-0.054,0.061C66.519,431.908,66.492,431.884,66.489,431.852z"/>
			</g>
		</g>
	</g>
</g>
<g id="Character">
	<g id="Character_7_">
		<g id="Bottom_2_">
			<g>
				<path style="fill:#C8856A;" d="M457.666,416.524c-1.078-14.835,0.588-26.206-0.647-49.37v0
					c-0.11-5.937-0.325-12.298-0.723-17.949c-1.34-19.012-4.271-25.512-4.542-29.181c0,0-0.502-29.581-1.745-71.181
					c-0.584-19.57-6.255-25.496-10.786-35.884h-53.859c-6.017,25.632-7.731,81.528-7.552,107.944
					c0.091,13.468,5.528,85.513,5.637,87.171c0.385,5.879-0.128,8.2-2.432,10.672c-4.826,5.178-11.821,10.107-17.868,14.621
					c0.876,2.313,8.148,2.228,11.748,0.467c5.751-2.813,11.46-7.104,13.423-8.557c4.969-3.678,11.318-6.629,11.4-12.226
					c0.014-0.697,0.203-0.889,0.167-0.999c0.094-3.268,7.712-51.462,8.347-62.645c0.545-9.615-0.625-25.934-0.625-25.934
					l6.204-40.732c0,0,3.824,24.074,7.694,40.513c3.149,13.381,8.344,36.214,11.889,52.682l0,0
					c3.404,18.971,8.406,32.474,9.27,41.971c0.261,2.267,2.829,24.522,3.889,29.62c1.06,5.097,12.171,5.232,12.883-3.535
					C459.912,438.156,457.869,419.316,457.666,416.524z"/>
				<path id="XMLID_1417_" style="fill:#F28F8F;" d="M413.813,282.741l-4.536-29.383c0,0-17.535-2.082-23.912-8.208
					c0,0,8.041,11.346,19.939,13.196l5,24.357l-2.643,40.422L413.813,282.741z"/>
			</g>
			<g>
				<path style="fill:#263238;" d="M352.861,439.281c-0.307-0.003-0.808,3.381,0.847,4.839c1.91,1.683,7.54,4.474,15.027,3.587
					c7.488-0.887,11.562-3.157,14.581-5.629c3.019-2.472,7.25-5.959,10.641-6.669c3.149-0.659,6.577-2.046,7.593-3.007
					c1.016-0.96,0.922-5.28,0.922-5.28L352.861,439.281z"/>
				<path id="XMLID_1416_" style="fill:#37474F;" d="M400.044,410.471c0,0,0.564,0.024,0.747,1.026
					c0.217,1.192,0.429,4.655,0.903,6.614c0.657,2.722,1.057,8.29,0.622,10.498c-0.435,2.208-5.574,3.69-8.861,4.901
					c-3.357,1.238-7.252,3.821-10.676,6.583c-3.544,2.859-10.967,5.687-15.842,5.706c-7.441,0.029-12.238-2.041-13.697-4.73
					c-1.805-3.328-0.341-5.229,8.251-9.099c1.626-0.732,7.348-4.036,9.298-5.235c2.061-1.267,4.039-2.679,5.864-4.268
					c0.924-0.804,1.808-1.654,2.638-2.555c0.731-0.793,1.757-1.75,2.195-2.742c0.099-0.225,0.169-0.488,0.258-0.721
					c0.257-0.674,0.435-1.295,0.579-1.998c0.145-0.709,0.243-1.745,0.924-2.163c0.782-0.481,2.182-0.405,3.06-0.329
					c1.105,0.096,2.214,0.248,3.292,0.502c1.255,0.296,2.71,0.423,3.444,1.613c0.562,0.912,0.637,2.057,0.671,3.105
					c0.016,0.499,0,1.002-0.001,1.501c0,0.213-0.095,0.596,0.204,0.51c0.285-0.081,0.611-0.824,0.721-1.077
					c0.243-0.556,0.401-1.153,0.667-1.7c0.303-0.625,0.645-1.266,1.083-1.799c0.409-0.497,0.855-0.973,1.368-1.364
					c0.467-0.355,1.06-0.529,1.475-0.933C399.756,411.807,399.994,410.894,400.044,410.471z"/>
				<path style="fill:#FAFAFA;" d="M360.105,432.607c10.764,0.858,14.084,7.546,14.498,11.667c-2.679,0.917-5.438,1.516-7.666,1.525
					c-7.441,0.029-12.544-2.041-14.003-4.731C351.231,437.929,352.438,435.424,360.105,432.607z"/>
				<g>
					<g>
						<path style="fill:#F0F0F0;" d="M376.251,432.89c0.117,0.002,0.235-0.036,0.334-0.115c0.227-0.181,0.263-0.512,0.082-0.739
							c-1.48-1.852-5.778-4.329-9.698-3.945c-0.29,0.028-0.502,0.286-0.473,0.574c0.028,0.288,0.278,0.5,0.574,0.473
							c3.659-0.348,7.602,2.086,8.776,3.555C375.947,432.821,376.098,432.889,376.251,432.89z"/>
					</g>
					<g>
						<path style="fill:#F0F0F0;" d="M380.919,430.237c0.117,0.001,0.235-0.036,0.334-0.115c0.227-0.181,0.263-0.512,0.082-0.74
							c-1.481-1.854-5.782-4.337-9.698-3.945c-0.29,0.028-0.502,0.286-0.473,0.575c0.027,0.288,0.273,0.5,0.574,0.473
							c3.658-0.353,7.602,2.086,8.775,3.555C380.615,430.168,380.766,430.236,380.919,430.237z"/>
					</g>
					<g>
						<path style="fill:#F0F0F0;" d="M385.25,427.196c0.118,0.001,0.235-0.036,0.335-0.116c0.227-0.181,0.263-0.512,0.082-0.74
							c-1.48-1.854-5.796-4.332-9.698-3.944c-0.29,0.027-0.502,0.286-0.473,0.574c0.028,0.289,0.275,0.499,0.574,0.473
							c3.653-0.35,7.602,2.086,8.775,3.555C384.947,427.127,385.097,427.195,385.25,427.196z"/>
					</g>
					<g>
						<path style="fill:#F0F0F0;" d="M389.494,424.154c0.114,0.001,0.231-0.035,0.328-0.111c0.23-0.178,0.271-0.509,0.093-0.738
							c-2.035-2.627-6.679-4.393-10.593-4.008c-0.29,0.028-0.502,0.286-0.473,0.574c0.027,0.289,0.276,0.492,0.574,0.473
							c3.525-0.345,7.855,1.276,9.661,3.605C389.186,424.083,389.34,424.152,389.494,424.154z"/>
					</g>
				</g>
			</g>
			<g>
				<path style="fill:#263238;" d="M443.065,451.5c0.296,5.081,1.085,8.449,2.888,11.428c1.802,2.98,5.203,3.915,8.647,3.043
					c3.444-0.873,7.855-3.205,8.843-7.587c0.987-4.383,1.563-7.386,0.78-12.098L443.065,451.5z"/>
				<path id="XMLID_1415_" style="fill:#37474F;" d="M457.544,414.71c1.419,0.111,1.838,6.933,2.656,13.763
					c0.877,7.321,3.063,10.349,3.846,16.352c0.895,6.858-0.24,9.922-2.643,14.069c-2.402,4.147-10.909,8.214-15.102,2.276
					c-3.417-4.842-3.559-10.211-3.247-17.059c0.322-7.079-0.168-11.981-0.457-17.353c-0.276-5.135-1.413-10.313-0.18-10.884
					c0.095,0.754,0.187,1.711,0.288,2.452c0.124,0.912,0.127,1.868,0.458,2.738c0.145,0.382,0.461,0.782,0.59,0.161
					c0.087-0.421,0.046-0.856-0.001-1.277c-0.208-1.891,0.745-2.045,1.259-2.192c1.115-0.319,5.52-0.86,6.583-0.933
					c1.084-0.074,4.827-0.237,5.313,0.38c0.329,0.418,0.376,1.118,0.477,1.983c0.121,1.032,0.36,1.788,0.39,1.464
					c0.068-0.739-0.076-2.66-0.094-3.124c-0.017-0.445-0.09-1.051-0.096-1.498C457.578,415.587,457.574,415.148,457.544,414.71z"/>
				<path style="fill:#FAFAFA;" d="M464.44,448.798c0.245,4.258-0.773,7.175-2.654,10.421c-2.403,4.147-11.595,8.228-15.787,2.289
					c-2.086-2.955-2.645-6.448-2.932-10.013C445.58,446.918,460.477,444.902,464.44,448.798z"/>
				<g>
					<g>
						<path style="fill:#F0F0F0;" d="M446.164,444.039c0.059-0.006,0.117-0.022,0.175-0.048s6.623-2.742,13.015-1.263
							c0.283,0.061,0.565-0.112,0.632-0.395c0.065-0.283-0.112-0.566-0.395-0.631c-6.76-1.56-13.455,1.222-13.706,1.339
							c-0.262,0.127-0.373,0.44-0.248,0.703C445.734,443.948,445.949,444.061,446.164,444.039z"/>
					</g>
					<g>
						<path style="fill:#F0F0F0;" d="M459.035,437.616c0.199-0.02,0.378-0.153,0.447-0.354c0.092-0.276-0.055-0.575-0.329-0.669
							c-6.362-2.155-13.423,1.079-13.689,1.219c-0.258,0.134-0.358,0.452-0.221,0.71c0.136,0.256,0.457,0.35,0.71,0.221
							c0.06-0.03,6.941-3.166,12.861-1.153C458.887,437.617,458.962,437.624,459.035,437.616z"/>
					</g>
					<g>
						<path style="fill:#F0F0F0;" d="M458.811,432.797c0.195-0.02,0.371-0.149,0.442-0.345c0.098-0.275-0.043-0.576-0.317-0.673
							c-6.997-2.507-13.699,1.028-13.948,1.179c-0.249,0.151-0.328,0.475-0.176,0.723c0.151,0.249,0.481,0.329,0.723,0.177
							c0.055-0.035,6.533-3.419,13.045-1.088C458.658,432.796,458.736,432.804,458.811,432.797z"/>
					</g>
					<g>
						<path style="fill:#EBEBEB;" d="M458.464,428.052c0.192-0.019,0.367-0.145,0.44-0.338c0.102-0.272-0.035-0.576-0.307-0.677
							c-6.557-2.455-13.771,1.168-14.042,1.326c-0.252,0.143-0.338,0.466-0.193,0.718c0.143,0.253,0.465,0.343,0.718,0.193
							c0.063-0.035,7.059-3.533,13.147-1.252C458.305,428.05,458.385,428.06,458.464,428.052z"/>
					</g>
				</g>
			</g>
			<path style="fill:#37474F;" d="M446.186,213.132c4.459,12.745,7.992,20.807,7.73,55.41c-0.282,37.356-0.949,44.623-0.813,48.795
				c0.135,4.172,2.563,11.628,4.695,32.179c2.132,20.55-0.39,45.037-0.39,45.037s-1.47,3.307-9.328,4.011
				c-7.249,0.65-10.839-2.071-10.839-2.071s-9.94-40.018-12.689-52.396c-2.749-12.378-10.738-53.077-10.738-53.077l-4.741,33.009
				c0,0,2.211,11.341,0,29.362c-2.211,18.021-6.107,36.481-6.107,36.481s-4.93,1.912-11.132,1.819
				c-6.202-0.093-9.771-2.553-9.771-2.553s-6.158-53.619-6.158-74.046c0-20.426,1.726-71.492,8.155-101.734L446.186,213.132z"/>
			<path style="fill:#263238;" d="M386.091,242.824c3.08,8.435,14.287,14.342,19.212,15.523l5.783,32.23l-2.014,33.451l4.741-33.009
				l-6.472-39.279C407.342,251.739,393.683,250.763,386.091,242.824z M433.487,325.604c-1.97-10.582-3.372-21.28-4.758-31.986
				c-1.348-10.712-2.688-21.436-4.177-32.146c0.652,10.793,1.429,21.573,2.495,32.335c1.042,10.763,2.357,21.517,4.299,32.19
				c2.078,10.647,4.171,21.207,6.395,31.788c2.192,10.577,4.524,21.128,6.994,31.659c-1.637-10.684-3.412-21.348-5.326-31.985
				C437.527,346.826,435.51,336.172,433.487,325.604z M384.328,289.648l1.763-28.176c-1.451,9.309-2.581,18.667-3.451,28.047
				c-0.842,9.394-1.648,18.748-1.678,28.271c0.318,9.477,1.039,18.833,1.809,28.227c0.765,9.384,1.709,18.753,2.815,28.108
				c-0.262-9.417-0.638-18.824-1.12-28.221l-0.71-14.093c-0.237-4.69-0.522-9.403-0.618-14.056
				c-0.078-4.633,0.201-9.344,0.415-14.029C383.766,299.034,384.068,294.343,384.328,289.648z"/>
		</g>
		<g id="Top_5_">
			<g>
				<g id="Arm_10_">
					<path style="fill:#C8856A;" d="M377.922,164.733c-6.069,8.299-17.418,24.518-17.418,24.518s-29.542,5.838-32.381,5.414
						c-2.84-0.425-11.024-3.56-13.865-4.579c-1.602-0.575-10.037-1.875-11.751-1.626c-1.714,0.249-8.048,0.414-10.323,0.819
						c-1.443,0.257-1.046,2.557,1.242,3.239c1.763,0.525,5.714,0.479,7.522,0.626c0.582,0.047,2.118,0.123,3.004,0.453
						c-1.012,0.457-1.464,1.01-1.729,1.409c-0.682,1.031-0.092,2.144-0.092,2.144c-1.129,0.684-2.935,1.446-2.288,3.514
						c0.428,1.364,0.632,1.605,0.632,1.605s-0.411,0.235-0.578,0.793c-0.48,1.597,3.009,4.824,4.528,5.312
						c1.066,0.343,2.19-0.057,3.527-0.886c1.138-0.706,0.024-1.686,0.024-1.686l1.74-0.657c4.824,0.964,7.313,6.035,12.66,5.008
						c1.129-0.217,3.217-1.185,6.425-1.495c10.71-1.035,28.114,0.867,38.578-1.107c2.143-0.404,4.081-1.506,5.522-3.144
						c6.676-7.587,21.091-26.417,21.091-26.417l4.045-26.976C389.559,151.556,385.13,154.878,377.922,164.733z"/>
				</g>
				<path style="fill:#AF6152;" d="M309.716,205.144c4.824,0.964,7.313,6.035,12.66,5.008c1.129-0.217,3.217-1.185,6.425-1.495
					c0.333-0.032,0.692-0.054,1.038-0.08l0.025-0.011c0,0-4.214-0.097-7.581-0.078c-3.367,0.019-4.495-1.778-5.085-2.466
					c-0.591-0.688-1.057-2.363-2.246-2.983c-1.189-0.621-5.842-0.914-5.842-0.914s2.056,0.144,2.443,1.238
					C311.979,204.569,311.589,204.547,309.716,205.144z"/>
				<path style="fill:#AF6152;" d="M303.952,193.598c1.62,0.526,3.118,1.458,3.118,1.458l-4.039-0.917L303.952,193.598z"/>
				<g>
					<path style="fill:#AF6152;" d="M316.643,194.665c0.334,0.672,0.632,1.417,0.532,2.221c-0.052,0.39-0.252,0.816-0.631,1.034
						c-0.367,0.226-0.799,0.269-1.194,0.263c-1.548-0.007-3.051-0.369-4.532-0.505c-0.742-0.081-1.481-0.101-2.219-0.094
						c-0.734,0.009-1.476,0.059-2.094,0.275c-0.62,0.206-0.966,0.642-1.007,1.214c-0.046,0.461,0.45,0.877,1.084,1.169
						c0.626,0.301,1.34,0.507,2.066,0.719c0.745,0.232,1.411,0.406,2.154,0.553c1.454,0.281,3.043,0.48,4.473,1.301
						c0.78,0.494,1.112,1.278,1.465,1.926c0.346,0.669,0.717,1.296,1.214,1.831c0.992,1.091,2.48,1.617,3.954,1.917
						c-1.499-0.109-3.072-0.529-4.257-1.608c-0.596-0.524-1.036-1.2-1.419-1.856c-0.386-0.65-0.756-1.31-1.31-1.603
						c-1.281-0.599-2.774-0.731-4.29-0.971c-0.753-0.106-1.553-0.326-2.258-0.534c-0.729-0.208-1.483-0.41-2.229-0.757
						c-0.37-0.181-0.745-0.398-1.081-0.735c-0.337-0.324-0.597-0.869-0.559-1.393c0.042-0.51,0.201-0.939,0.526-1.335
						c0.32-0.39,0.761-0.609,1.17-0.743c0.83-0.251,1.628-0.254,2.404-0.243c0.778,0.012,1.553,0.107,2.314,0.233
						c1.523,0.262,2.975,0.654,4.459,0.837c0.356,0.037,0.712,0.022,1.011-0.13c0.304-0.142,0.491-0.459,0.57-0.804
						C317.1,196.137,316.909,195.367,316.643,194.665z"/>
				</g>
				<g>
					<path style="fill:#AF6152;" d="M300.475,202.269c1.027,1.188,2.124,2.268,3.305,3.26c0.28,0.236,0.618,0.523,0.871,0.67
						c0.224,0.096,0.669,0.038,1.028,0.006c0.759-0.097,1.523-0.265,2.297-0.404c-0.711,0.341-1.452,0.606-2.23,0.789
						c-0.402,0.075-0.763,0.196-1.288,0.049c-0.428-0.228-0.68-0.469-1.005-0.722C302.258,204.889,301.178,203.685,300.475,202.269z
						"/>
				</g>
				<g>
					<path style="fill:#AF6152;" d="M302.131,197.15c0.809,1.472,1.6,2.946,2.541,4.289c0.239,0.314,0.483,0.698,0.764,0.741
						c0.344,0.104,0.771,0.093,1.176,0.102c0.824-0.013,1.657-0.095,2.497-0.157c-0.801,0.269-1.626,0.45-2.474,0.548
						c-0.427,0.046-0.852,0.074-1.323-0.027c-0.118-0.027-0.241-0.069-0.369-0.156c-0.113-0.078-0.192-0.159-0.268-0.242
						c-0.156-0.165-0.286-0.337-0.415-0.511c-0.492-0.705-0.904-1.444-1.254-2.214C302.652,198.756,302.342,197.968,302.131,197.15z
						"/>
				</g>
			</g>
			<g>
				<path style="fill:#455A64;" d="M452.881,236.654c-2.692-19.597-6.217-26.768-6.837-29.127
					c-1.565-5.95,2.212-16.539,3.272-22.662c2.308-13.333-2.386-29.25-5.441-31.956c0,0-3.515-0.958-6.474-1.56
					c-2.345-0.477-4.15-0.795-7.238-1.62c-7.681-2.052-16.172-0.402-19.122-0.171c-1.454,0.114-3.405-0.26-6.044,0.292
					c-2.092,0.437-6.955,1.159-6.962,1.163c0,0-4.841,3.772-9.47,11.616c-3.534,5.987-6.507,9.912-6.744,23.985
					c-0.28,16.555-0.86,32.578-1.424,49.756C393.903,245.107,434.961,246.555,452.881,236.654z"/>
			</g>
			<g id="XMLID_1301_">
				<path style="fill:#263238;" d="M421.026,88.365c-3.686,1.658-5.283,2.979-8.525-0.435c-3.79-3.099-9.49-1.874-12.35,1.922
					c-0.986,1.243-1.978,2.87-3.529,2.856c-0.863-0.008-1.979-0.572-3.548-0.737c-1.569-0.165-4.53,0.608-5.842,3.372
					c-0.485,1.315-0.073,2.799,0.081,4.206c0.151,1.38-0.334,2.912-1.479,3.594c-1.145,0.682-2.914,0.105-3.217-1.248
					c-1.189,1.008-1.052,2.964-0.252,4.168c0.953,1.435,3.567,1.964,5.165,2.26c-0.824-0.152-2.07,3.306-2.224,3.866
					c-0.49,1.782-0.279,3.313,0.295,5.06c0.852,2.595,2.479,6.108,0.587,8.647c-1.433,1.923-4.492,1.957-6.493,0.634
					c0.831,3.773,4.719,6.611,8.566,6.252c-0.339,0.032-0.548,3.382-0.558,3.756c-0.033,1.191,0.034,2.581,0.404,3.72
					c0.663,2.044,2.977,3.313,4.932,3.898c2.071,0.619,4.258,0.697,6.41,0.9c1.434,0.135,2.885,0.328,4.257,0.783
					c1.259,0.418,2.401,1.098,3.684,1.535c1.648,0.561,3.324,1.065,5.052,1.308c1.439,0.203,2.921,0.22,4.352-0.055
					c1.193-0.229,2.281-0.967,3.425-1.084c3.421-0.349,6.91-0.273,9.656-2.615c1.556-1.328,2.923-2.945,4.771-3.822
					c2.21-1.048,4.815-0.896,7.099-1.772c2.932-1.124,5.092-4.034,5.318-7.165c1.55,0.218,3.204,0.14,4.57-0.624
					c1.366-0.764,2.356-2.337,2.081-3.878c-1.853,1.286-4.59,0.485-6.029-1.252c-1.439-1.737-1.826-4.117-1.823-6.372
					c0.005-3.28,0.718-6.531,0.691-9.811c-0.023-2.754-0.709-7.084-3.385-8.597c-2.506-1.417-5.695-1.819-7.753-3.997
					c-1.123-1.189-1.696-2.777-2.413-4.247C430.823,88.915,425.89,86.177,421.026,88.365z"/>
				<path style="fill:#C8856A;" d="M395.732,112.083c2.625-5.118,5.938-5.177,9.704-5.94c7.404-1.502,9.342-2.406,12.578-6.085
					c-2.148,5.062,2.96,13.252,6.25,14.154c-1.422,4.094-0.66,8.44,2.923,9.736c1.905-4.332,6.602-4.942,9.053-2.175
					c2.758,3.114,2.505,9.04-1.191,12.462c-4.019,3.72-6.524,0.617-6.524,0.617l-0.298,14.534c0,0-3.075,10.22-25.813,17.884
					c-2.453-10.859,4.991-17.71,4.991-17.71l0.122-5.303c-2.411-0.055-6.091-0.686-8.227-2.206
					c-1.916-1.364-5.696-4.125-5.187-18.146C394.342,117.631,394.728,114.04,395.732,112.083z"/>
				<g>
					<g id="XMLID_4444_">
						<path id="XMLID_4445_" style="fill:#AF6152;" d="M413.516,130.339l-7.255,1.625c0.407,2.071,2.361,3.386,4.364,2.937
							C412.628,134.453,413.922,132.411,413.516,130.339z"/>
					</g>
					<path style="fill:#FFA8A7;" d="M408.863,134.848c0.557,0.159,1.154,0.2,1.761,0.065c1.426-0.32,2.48-1.447,2.838-2.815
						C411.447,131.927,409.635,133.085,408.863,134.848z"/>
				</g>
				<g id="XMLID_4440_">
					<path id="XMLID_4441_" style="fill:#AF6152;" d="M408.781,116.992l-1.96,11.009l-5.434-2.188
						C404.192,121.262,406.207,118.719,408.781,116.992z"/>
				</g>
				<g id="XMLID_4436_">
					<path id="XMLID_4437_" style="fill:#AF6152;" d="M407.528,144.255c5.554-0.387,15.012-1.81,18.529-8.118
						c0,0-1.136,3.765-3.793,5.96c-4.726,3.904-14.798,4.882-14.798,4.882L407.528,144.255z"/>
				</g>
				<path id="XMLID_4431_" style="fill:#263238;" d="M414.514,114.113l4.495,1.969c0.518-1.287-0.068-2.771-1.309-3.315
					C416.458,112.224,415.032,112.826,414.514,114.113z"/>
				<path id="XMLID_4429_" style="fill:#263238;" d="M397.325,114.434l4.71-1.507c-0.37-1.327-1.725-2.065-3.026-1.649
					C397.709,111.694,396.955,113.107,397.325,114.434z"/>
				<path style="fill:#263238;" d="M412.781,119.578c-0.077,1.053,0.715,1.968,1.767,2.045c1.053,0.076,1.968-0.715,2.045-1.767
					c0.077-1.053-0.715-1.968-1.767-2.045C413.773,117.734,412.858,118.526,412.781,119.578z"/>
				<path style="fill:#263238;" d="M397.938,118.318c-0.077,1.053,0.715,1.968,1.767,2.045c1.053,0.077,1.968-0.715,2.044-1.767
					c0.077-1.053-0.715-1.968-1.767-2.045C398.93,116.474,398.015,117.265,397.938,118.318z"/>
			</g>
			<g id="Arm_11_">
				<g>
					<path style="fill:#AF6152;" d="M451.53,252.475c3.176,1.212,7.698-2.476,8.964-3.785c1.266-1.309,0.085-4.786-0.359-7.672
						c-0.445-2.885,0.692-7.6-2.945-6.569C453.552,235.48,445.404,244.278,451.53,252.475z"/>
					<path style="fill:#C8856A;" d="M443.874,152.906c7.988,1.874,11.313,1.518,17.715,13.965
						c5.989,11.644,16.452,31.666,18.314,36.622c2.345,6.239,3.345,8.436-2.445,15.159c-5.295,6.15-23.179,22.212-25.578,24.545
						c-2.123,2.064-1.615,8.551,5.104,8.179c0,0-5.439,4.028-8.17,3.29c-2.356-0.637-5.939-3.06-8.758-10.621
						c-1.779-4.77,0.357-8.205,4.117-13.015c4.488-5.742,16.06-22.134,16.06-22.134l-15.166-24.053
						c-2.274-3.607-3.851-7.609-4.612-11.804C439.272,166.513,438.78,157.371,443.874,152.906z"/>
				</g>
			</g>
		</g>
	</g>
</g>
<g id="Speech_Bubble">
	<g id="Speech_Bubble_17_">
		<g id="Speech_Bubble_18_">
			<g>
				<path style="fill:#BA68C8;" d="M414.814,63.967l9.716,5.705l-3.859,8.798c-0.084,0.192-0.216,0.331-0.369,0.419
					c-0.461,0.265-3.187,1.866-3.338,1.954c-0.461,0.271-1.127,0.08-1.303-0.526l-4.19-14.392L414.814,63.967z"/>
				<path style="opacity:0.15;" d="M414.814,63.967l9.716,5.705l-3.859,8.798c-0.084,0.192-0.216,0.331-0.369,0.419
					c-0.461,0.265-3.187,1.866-3.338,1.954c-0.461,0.271-1.127,0.08-1.303-0.526l-4.19-14.392L414.814,63.967z"/>
				<path style="fill:#BA68C8;" d="M421.186,71.63l-3.859,8.798c-0.336,0.766-1.432,0.693-1.666-0.111l-4.19-14.392L421.186,71.63z"
					/>
			</g>
			<g>
				<path id="XMLID_1401_" style="fill:#BA68C8;" d="M394.032,26.962L449.515,59c0.509,0.294,0.921,1.008,0.921,1.596v24.929
					c0,0.588-0.415,1.298-0.927,1.587l-3.301,1.85c-0.512,0.289-1.339,0.285-1.848-0.009l-55.483-32.038
					c-0.509-0.294-0.921-1.008-0.921-1.596V30.39c0-0.587,0.415-1.298,0.927-1.587l3.301-1.85
					C392.696,26.664,393.523,26.668,394.032,26.962z"/>
				<path id="XMLID_1400_" style="opacity:0.3;fill:#FFFFFF;" d="M387.969,30.223c0.072-0.464,0.451-0.63,0.911-0.366l55.48,32.039
					c0.255,0.149,0.485,0.4,0.651,0.69l5.137-2.931c-0.166-0.277-0.387-0.515-0.634-0.655L394.03,26.96
					c-0.507-0.294-1.332-0.298-1.847-0.009l-3.299,1.85C388.421,29.065,388.034,29.674,387.969,30.223z"/>
				<path id="XMLID_1399_" style="fill:#BA68C8;" d="M445.283,88.421V63.492c0-0.588-0.413-1.302-0.921-1.596l-55.483-32.038
					c-0.509-0.294-0.921-0.056-0.921,0.532v24.929c0,0.588,0.413,1.302,0.921,1.596l55.483,32.038
					C444.87,89.247,445.283,89.008,445.283,88.421z"/>
				<path id="XMLID_1397_" style="opacity:0.15;" d="M444.361,88.953c0.49,0.285,1.386,0.295,1.849,0.011l3.299-1.854
					c0.511-0.285,0.928-0.996,0.928-1.583V60.595c0-0.306-0.115-0.643-0.294-0.94l-5.133,2.931c0.17,0.285,0.272,0.613,0.272,0.906
					v24.927C445.283,88.957,444.904,89.267,444.361,88.953z"/>
			</g>
		</g>
		<g>
			<path style="fill:#FFFFFF;" d="M397.27,40.35c1.219,0.704,2.166,1.692,2.841,2.965c0.675,1.274,1.012,2.763,1.012,4.469
				c0,1.706-0.337,2.813-1.012,3.323c-0.675,0.51-1.622,0.413-2.841-0.291l-2.417-1.396v5.187c0,0.17-0.04,0.295-0.12,0.372
				c-0.082,0.078-0.177,0.084-0.287,0.021l-1.224-0.707c-0.112-0.064-0.207-0.182-0.288-0.352c-0.08-0.17-0.121-0.341-0.121-0.512
				V38.404c0-0.17,0.041-0.294,0.121-0.372c0.081-0.078,0.176-0.084,0.288-0.02L397.27,40.35z M394.853,46.513l2.342,1.352
				c0.574,0.331,1.032,0.421,1.375,0.27c0.342-0.151,0.513-0.661,0.513-1.529c0-0.868-0.171-1.567-0.513-2.099
				c-0.343-0.531-0.801-0.962-1.375-1.293l-2.342-1.352V46.513z"/>
			<path style="fill:#FFFFFF;" d="M407.105,46.028c0.161,0.093,0.281,0.229,0.362,0.407c0.08,0.178,0.151,0.417,0.212,0.715
				l3.7,16.837c0.011,0.052,0.016,0.109,0.016,0.171c0,0.17-0.04,0.295-0.121,0.372c-0.08,0.078-0.176,0.084-0.287,0.021
				l-1.087-0.628c-0.201-0.116-0.343-0.263-0.423-0.442c-0.081-0.179-0.137-0.338-0.167-0.48l-0.649-2.957l-4.774-2.757
				l-0.649,2.207c-0.029,0.108-0.085,0.203-0.166,0.288c-0.081,0.085-0.221,0.07-0.423-0.046l-1.087-0.628
				c-0.112-0.064-0.207-0.181-0.288-0.352c-0.08-0.17-0.121-0.341-0.121-0.512c0-0.061,0.006-0.113,0.016-0.154l3.702-12.563
				c0.06-0.229,0.13-0.386,0.211-0.471c0.08-0.085,0.201-0.081,0.362,0.011L407.105,46.028z M407.936,56.718l-1.662-7.588
				l-1.662,5.669L407.936,56.718z"/>
			<path style="fill:#FFFFFF;" d="M420.716,53.886c0.111,0.064,0.207,0.181,0.288,0.352c0.08,0.17,0.12,0.341,0.12,0.511v9.536
				c0,0.962-0.091,1.777-0.271,2.448c-0.181,0.671-0.453,1.181-0.816,1.529c-0.362,0.349-0.815,0.518-1.359,0.506
				c-0.543-0.012-1.174-0.224-1.888-0.637c-0.726-0.419-1.357-0.935-1.896-1.548c-0.539-0.614-0.989-1.304-1.353-2.072
				c-0.362-0.767-0.632-1.589-0.808-2.466c-0.177-0.877-0.265-1.796-0.265-2.758v-9.536c0-0.17,0.04-0.294,0.121-0.372
				c0.08-0.078,0.176-0.085,0.286-0.021l1.225,0.706c0.11,0.064,0.206,0.181,0.287,0.352c0.08,0.17,0.121,0.341,0.121,0.512v9.42
				c0,0.636,0.055,1.21,0.166,1.724c0.11,0.514,0.266,0.972,0.468,1.375c0.202,0.403,0.443,0.752,0.726,1.046
				c0.281,0.294,0.589,0.538,0.922,0.73c0.332,0.192,0.642,0.305,0.928,0.338c0.288,0.035,0.531-0.034,0.733-0.205
				c0.201-0.171,0.359-0.447,0.476-0.83c0.116-0.383,0.174-0.892,0.174-1.528v-9.42c0-0.171,0.04-0.295,0.121-0.372
				c0.081-0.078,0.176-0.084,0.287-0.021L420.716,53.886z"/>
			<path style="fill:#FFFFFF;" d="M427.03,57.299c0.675,0.39,1.27,0.872,1.783,1.448c0.514,0.576,0.942,1.172,1.284,1.788
				c0.342,0.616,0.602,1.227,0.778,1.833c0.176,0.605,0.274,1.139,0.294,1.6c0.011,0.192-0.027,0.321-0.113,0.388
				c-0.085,0.067-0.184,0.068-0.294,0.005l-1.058-0.611c-0.171-0.099-0.3-0.223-0.385-0.373c-0.087-0.15-0.164-0.331-0.234-0.542
				c-0.151-0.475-0.381-0.944-0.688-1.409c-0.308-0.464-0.764-0.871-1.368-1.22c-0.261-0.151-0.511-0.252-0.747-0.304
				c-0.237-0.052-0.443-0.047-0.619,0.015c-0.177,0.061-0.315,0.178-0.416,0.354c-0.1,0.174-0.151,0.409-0.151,0.703
				c0,0.357,0.048,0.675,0.145,0.955c0.096,0.28,0.256,0.567,0.482,0.86c0.227,0.294,0.526,0.618,0.899,0.973
				c0.373,0.355,0.835,0.785,1.391,1.291c0.603,0.551,1.124,1.088,1.563,1.612c0.438,0.524,0.796,1.056,1.073,1.596
				c0.276,0.54,0.482,1.097,0.619,1.671c0.136,0.575,0.204,1.18,0.204,1.815c0,0.698-0.101,1.288-0.303,1.768
				c-0.201,0.481-0.488,0.827-0.86,1.038c-0.373,0.211-0.832,0.284-1.375,0.218c-0.544-0.066-1.154-0.294-1.828-0.683
				c-0.564-0.325-1.103-0.741-1.617-1.247c-0.513-0.506-0.969-1.071-1.366-1.696c-0.398-0.626-0.718-1.287-0.959-1.984
				c-0.242-0.698-0.378-1.396-0.409-2.097c-0.01-0.192,0.028-0.321,0.113-0.388c0.086-0.067,0.184-0.069,0.296-0.004l1.057,0.61
				c0.171,0.099,0.302,0.221,0.393,0.366c0.092,0.146,0.167,0.329,0.227,0.549c0.07,0.242,0.156,0.494,0.257,0.753
				c0.102,0.26,0.237,0.517,0.408,0.77c0.172,0.254,0.386,0.506,0.642,0.755c0.257,0.249,0.577,0.484,0.96,0.705
				c0.302,0.174,0.594,0.308,0.876,0.401c0.282,0.093,0.529,0.119,0.74,0.078c0.212-0.041,0.383-0.143,0.514-0.309
				c0.131-0.164,0.197-0.425,0.197-0.781c0-0.341-0.071-0.661-0.212-0.96c-0.142-0.298-0.355-0.608-0.643-0.929
				c-0.287-0.32-0.642-0.673-1.065-1.057c-0.423-0.384-0.912-0.844-1.466-1.381c-0.504-0.477-0.944-0.952-1.322-1.426
				c-0.377-0.474-0.69-0.968-0.937-1.482c-0.246-0.515-0.43-1.059-0.551-1.632c-0.121-0.574-0.182-1.21-0.182-1.908
				c0-0.698,0.101-1.283,0.303-1.756c0.201-0.473,0.477-0.817,0.83-1.032c0.353-0.215,0.773-0.302,1.262-0.26
				C425.94,56.79,426.467,56.973,427.03,57.299z"/>
			<path style="fill:#FFFFFF;" d="M440.235,78.529c0.11,0.064,0.206,0.182,0.287,0.353c0.08,0.171,0.121,0.341,0.121,0.512v1.651
				c0,0.171-0.041,0.294-0.121,0.372c-0.081,0.077-0.177,0.084-0.287,0.02l-6.632-3.829c-0.111-0.064-0.207-0.182-0.287-0.352
				c-0.081-0.17-0.121-0.341-0.121-0.512V61.719c0-0.17,0.04-0.294,0.121-0.372c0.08-0.078,0.176-0.084,0.287-0.02l6.512,3.759
				c0.109,0.063,0.206,0.181,0.286,0.352c0.08,0.17,0.121,0.341,0.121,0.512v1.651c0,0.171-0.041,0.294-0.121,0.372
				c-0.08,0.078-0.177,0.084-0.286,0.021l-4.88-2.817v3.698l4.547,2.625c0.11,0.064,0.207,0.182,0.287,0.352
				c0.08,0.171,0.121,0.341,0.121,0.512v1.651c0,0.171-0.041,0.295-0.121,0.372c-0.08,0.078-0.177,0.084-0.287,0.021l-4.547-2.625
				v3.86L440.235,78.529z"/>
		</g>
	</g>
</g>
</svg>
