<svg width="24" height="24" viewBox="0 0 24 24" fill="none" xmlns="http://www.w3.org/2000/svg">
<path d="M20 10.1818C20 16.5455 12 22 12 22C12 22 4 16.5455 4 10.1818C4 8.01187 4.84285 5.93079 6.34315 4.3964C7.84344 2.86201 9.87827 2 12 2C14.1217 2 16.1566 2.86201 17.6569 4.3964C19.1571 5.93079 20 8.01187 20 10.1818Z" stroke="#E47B37" stroke-width="1.5" stroke-linecap="round" stroke-linejoin="round"/>
<path d="M12 12.5C13.5188 12.5 14.75 11.2688 14.75 9.75C14.75 8.23122 13.5188 7 12 7C10.4812 7 9.25 8.23122 9.25 9.75C9.25 11.2688 10.4812 12.5 12 12.5Z" stroke="#E47B37" stroke-width="1.5" stroke-linecap="round" stroke-linejoin="round"/>
</svg>
