<svg width="9" height="8" viewBox="0 0 9 8" fill="none" xmlns="http://www.w3.org/2000/svg">
<mask id="path-1-inside-1_33_18112" fill="white">
<path d="M2.38058 3.37798C2.67717 3.37798 2.96711 3.29003 3.21371 3.12525C3.46032 2.96048 3.65253 2.72627 3.76603 2.45226C3.87953 2.17824 3.90923 1.87672 3.85136 1.58583C3.7935 1.29494 3.65068 1.02773 3.44096 0.818011C3.23123 0.608289 2.96403 0.465466 2.67314 0.407604C2.38225 0.349742 2.08073 0.379439 1.80671 0.49294C1.5327 0.60644 1.29849 0.798648 1.13371 1.04525C0.968936 1.29186 0.880987 1.58179 0.880987 1.87839C0.881421 2.27597 1.03955 2.65715 1.32069 2.93828C1.60182 3.21942 1.983 3.37755 2.38058 3.37798ZM2.38058 1.37852C2.47945 1.37852 2.57609 1.40784 2.65829 1.46276C2.74049 1.51769 2.80456 1.59576 2.8424 1.6871C2.88023 1.77843 2.89013 1.87894 2.87084 1.9759C2.85156 2.07287 2.80395 2.16194 2.73404 2.23184C2.66413 2.30175 2.57507 2.34936 2.4781 2.36865C2.38114 2.38793 2.28063 2.37803 2.18929 2.3402C2.09795 2.30237 2.01989 2.2383 1.96496 2.1561C1.91003 2.07389 1.88072 1.97725 1.88072 1.87839C1.88081 1.74584 1.9335 1.61875 2.02722 1.52503C2.12095 1.4313 2.24804 1.37861 2.38058 1.37852ZM6.62163 4.61984C6.32504 4.61984 6.03511 4.70779 5.7885 4.87256C5.54189 5.03734 5.34968 5.27155 5.23618 5.54556C5.12268 5.81958 5.09299 6.1211 5.15085 6.41199C5.20871 6.70288 5.35153 6.97008 5.56125 7.17981C5.77098 7.38953 6.03818 7.53235 6.32907 7.59021C6.61997 7.64808 6.92148 7.61838 7.1955 7.50488C7.46951 7.39138 7.70372 7.19917 7.8685 6.95256C8.03327 6.70596 8.12122 6.41602 8.12122 6.11943C8.12079 5.72185 7.96266 5.34067 7.68152 5.05954C7.40039 4.7784 7.01921 4.62027 6.62163 4.61984ZM6.62163 6.6193C6.52276 6.6193 6.42612 6.58998 6.34392 6.53506C6.26172 6.48013 6.19765 6.40206 6.15981 6.31072C6.12198 6.21938 6.11208 6.11888 6.13137 6.02191C6.15066 5.92495 6.19826 5.83588 6.26817 5.76597C6.33808 5.69607 6.42715 5.64846 6.52411 5.62917C6.62107 5.60989 6.72158 5.61978 6.81292 5.65762C6.90426 5.69545 6.98233 5.75952 7.03725 5.84172C7.09218 5.92392 7.12149 6.02057 7.12149 6.11943C7.1214 6.25198 7.06871 6.37907 6.97499 6.47279C6.88126 6.56652 6.75417 6.61921 6.62163 6.6193ZM8.35357 0.146448C8.30716 0.10002 8.25207 0.0631894 8.19143 0.0380614C8.13079 0.0129334 8.06579 0 8.00015 0C7.9345 0 7.86951 0.0129334 7.80887 0.0380614C7.74823 0.0631894 7.69313 0.10002 7.64673 0.146448L0.648615 7.14456C0.601724 7.19087 0.564455 7.24599 0.53895 7.30675C0.513445 7.36752 0.500208 7.43273 0.500002 7.49863C0.499796 7.56453 0.512625 7.62982 0.53775 7.69074C0.562874 7.75167 0.599799 7.80702 0.646399 7.85362C0.692998 7.90021 0.748353 7.93714 0.809278 7.96226C0.870202 7.98738 0.935493 8.00021 1.00139 8C1.06729 7.99979 1.1325 7.98655 1.19327 7.96104C1.25403 7.93554 1.30915 7.89826 1.35545 7.85137L8.35357 0.853257C8.39999 0.806855 8.43682 0.751761 8.46194 0.691122C8.48707 0.630484 8.5 0.56549 8.5 0.499852C8.5 0.434215 8.48707 0.36922 8.46194 0.308582C8.43682 0.247944 8.39999 0.19285 8.35357 0.146448Z"/>
</mask>
<path d="M2.38058 3.37798L2.37862 5.17798H2.38058V3.37798ZM0.880987 1.87839H-0.919014L-0.919012 1.88035L0.880987 1.87839ZM2.38058 1.37852V-0.42148L2.37938 -0.421479L2.38058 1.37852ZM1.88072 1.87839L0.0807171 1.87718V1.87839H1.88072ZM6.62163 4.61984L6.62359 2.81984H6.62163V4.61984ZM8.12122 6.11943H9.92122L9.92122 6.11747L8.12122 6.11943ZM6.62163 6.6193V8.4193L6.62283 8.4193L6.62163 6.6193ZM7.12149 6.11943L8.92149 6.12064V6.11943H7.12149ZM8.35357 0.146448L7.08043 1.41889L7.08107 1.41953L8.35357 0.146448ZM8.00015 0V-1.8V0ZM7.64673 0.146448L8.91952 1.41924L8.91987 1.41889L7.64673 0.146448ZM0.648615 7.14456L1.91342 8.42533L1.92141 8.41735L0.648615 7.14456ZM1.00139 8L1.0071 9.79999L1.00139 8ZM1.35545 7.85137L0.082636 6.57855L0.0746502 6.58664L1.35545 7.85137ZM8.35357 0.853257L7.08107 -0.419827L7.08077 -0.419535L8.35357 0.853257ZM2.38058 5.17798C3.03318 5.17798 3.67112 4.98446 4.21374 4.6219L2.21369 1.62861C2.26309 1.5956 2.32117 1.57798 2.38058 1.57798V5.17798ZM4.21374 4.6219C4.75636 4.25934 5.17927 3.74401 5.42901 3.14109L2.10304 1.76343C2.12578 1.70853 2.16429 1.66162 2.21369 1.62861L4.21374 4.6219ZM5.42901 3.14109C5.67875 2.53816 5.74409 1.87473 5.61678 1.23467L2.08595 1.93699C2.07436 1.87872 2.08031 1.81832 2.10304 1.76343L5.42901 3.14109ZM5.61678 1.23467C5.48946 0.594607 5.17521 0.00667568 4.71375 -0.454781L2.16816 2.0908C2.12615 2.04879 2.09754 1.99526 2.08595 1.93699L5.61678 1.23467ZM4.71375 -0.454781C4.25229 -0.916237 3.66436 -1.23049 3.0243 -1.35781L2.32198 2.17302C2.2637 2.16143 2.21018 2.13282 2.16816 2.0908L4.71375 -0.454781ZM3.0243 -1.35781C2.38424 -1.48513 1.7208 -1.41978 1.11788 -1.17004L2.49554 2.15592C2.44065 2.17866 2.38025 2.18461 2.32198 2.17302L3.0243 -1.35781ZM1.11788 -1.17004C0.514959 -0.920305 -0.000367105 -0.497387 -0.362931 0.0452285L2.63036 2.04528C2.59735 2.09468 2.55043 2.13319 2.49554 2.15592L1.11788 -1.17004ZM-0.362931 0.0452285C-0.725496 0.587845 -0.919013 1.22579 -0.919013 1.87839H2.68099C2.68099 1.9378 2.66337 1.99588 2.63036 2.04528L-0.362931 0.0452285ZM-0.919012 1.88035C-0.918058 2.75464 -0.570323 3.59285 0.0478953 4.21107L2.59348 1.66549C2.64943 1.72144 2.6809 1.7973 2.68099 1.87642L-0.919012 1.88035ZM0.0478953 4.21107C0.666114 4.82929 1.50432 5.17703 2.37862 5.17798L2.38255 1.57798C2.46167 1.57807 2.53753 1.60954 2.59348 1.66549L0.0478953 4.21107ZM2.38058 3.17852C2.12344 3.17852 1.87207 3.10227 1.65827 2.95941L3.65832 -0.0338824C3.28011 -0.286594 2.83545 -0.42148 2.38058 -0.42148V3.17852ZM1.65827 2.95941C1.44446 2.81655 1.27782 2.61349 1.17941 2.37593L4.50538 0.998265C4.33131 0.57802 4.03653 0.21883 3.65832 -0.0338824L1.65827 2.95941ZM1.17941 2.37593C1.08101 2.13836 1.05526 1.87694 1.10543 1.62474L4.63626 2.32707C4.725 1.88094 4.67945 1.41851 4.50538 0.998265L1.17941 2.37593ZM1.10543 1.62474C1.15559 1.37255 1.27942 1.14088 1.46125 0.959052L4.00683 3.50464C4.32848 3.18299 4.54752 2.77319 4.63626 2.32707L1.10543 1.62474ZM1.46125 0.959052C1.64308 0.77722 1.87474 0.653397 2.12694 0.603232L2.82926 4.13406C3.27539 4.04532 3.68519 3.82628 4.00683 3.50464L1.46125 0.959052ZM2.12694 0.603232C2.37914 0.553066 2.64055 0.578813 2.87812 0.677218L1.50046 4.00318C1.92071 4.17726 2.38313 4.2228 2.82926 4.13406L2.12694 0.603232ZM2.87812 0.677218C3.11569 0.775622 3.31874 0.942263 3.46161 1.15607L0.468314 3.15612C0.721027 3.53433 1.08022 3.82911 1.50046 4.00318L2.87812 0.677218ZM3.46161 1.15607C3.60447 1.36987 3.68072 1.62124 3.68072 1.87839H0.0807171C0.0807171 2.33326 0.215602 2.77791 0.468314 3.15612L3.46161 1.15607ZM3.68072 1.87959C3.68049 2.22402 3.54356 2.55427 3.30001 2.79782L0.75443 0.252233C0.323435 0.683229 0.0811254 1.26767 0.0807175 1.87718L3.68072 1.87959ZM3.30001 2.79782C3.05647 3.04137 2.72621 3.17829 2.38179 3.17852L2.37938 -0.421479C1.76986 -0.421071 1.18542 -0.178762 0.75443 0.252233L3.30001 2.79782ZM6.62163 2.81984C5.96903 2.81984 5.33109 3.01335 4.78847 3.37592L6.78852 6.36921C6.73912 6.40222 6.68104 6.41984 6.62163 6.41984V2.81984ZM4.78847 3.37592C4.24585 3.73848 3.82294 4.25381 3.5732 4.85673L6.89917 6.23439C6.87643 6.28928 6.83793 6.3362 6.78852 6.36921L4.78847 3.37592ZM3.5732 4.85673C3.32346 5.45965 3.25812 6.12309 3.38543 6.76315L6.91626 6.06083C6.92785 6.1191 6.9219 6.1795 6.89917 6.23439L3.5732 4.85673ZM3.38543 6.76315C3.51275 7.40321 3.82701 7.99114 4.28846 8.4526L6.83405 5.90701C6.87606 5.94903 6.90467 6.00255 6.91626 6.06083L3.38543 6.76315ZM4.28846 8.4526C4.74992 8.91406 5.33785 9.22831 5.97791 9.35563L6.68023 5.8248C6.73851 5.83639 6.79203 5.865 6.83405 5.90701L4.28846 8.4526ZM5.97791 9.35563C6.61797 9.48294 7.28141 9.4176 7.88433 9.16786L6.50667 5.8419C6.56156 5.81916 6.62196 5.81321 6.68023 5.8248L5.97791 9.35563ZM7.88433 9.16786C8.48725 8.91812 9.00258 8.49521 9.36514 7.95259L6.37185 5.95254C6.40486 5.90313 6.45178 5.86463 6.50667 5.8419L7.88433 9.16786ZM9.36514 7.95259C9.72771 7.40997 9.92122 6.77203 9.92122 6.11943H6.32122C6.32122 6.06002 6.33884 6.00194 6.37185 5.95254L9.36514 7.95259ZM9.92122 6.11747C9.92027 5.24317 9.57253 4.40496 8.95432 3.78675L6.40873 6.33233C6.35278 6.27638 6.32131 6.20052 6.32122 6.1214L9.92122 6.11747ZM8.95432 3.78675C8.3361 3.16853 7.49789 2.82079 6.62359 2.81984L6.61966 6.41984C6.54054 6.41975 6.46468 6.38828 6.40873 6.33233L8.95432 3.78675ZM6.62163 4.8193C6.87877 4.8193 7.13014 4.89555 7.34394 5.03841L5.34389 8.0317C5.7221 8.28441 6.16676 8.4193 6.62163 8.4193V4.8193ZM7.34394 5.03841C7.55775 5.18127 7.72439 5.38433 7.8228 5.62189L4.49683 6.99955C4.6709 7.4198 4.96568 7.77899 5.34389 8.0317L7.34394 5.03841ZM7.8228 5.62189C7.9212 5.85946 7.94695 6.12087 7.89678 6.37308L4.36595 5.67075C4.27721 6.11688 4.32276 6.57931 4.49683 6.99955L7.8228 5.62189ZM7.89678 6.37308C7.84662 6.62527 7.72279 6.85694 7.54096 7.03877L4.99538 4.49318C4.67373 4.81483 4.45469 5.22463 4.36595 5.67075L7.89678 6.37308ZM7.54096 7.03877C7.35913 7.2206 7.12746 7.34442 6.87527 7.39459L6.17295 3.86376C5.72683 3.9525 5.31703 4.17153 4.99538 4.49318L7.54096 7.03877ZM6.87527 7.39459C6.62307 7.44475 6.36166 7.419 6.12409 7.3206L7.50175 3.99463C7.0815 3.82056 6.61908 3.77502 6.17295 3.86376L6.87527 7.39459ZM6.12409 7.3206C5.88652 7.2222 5.68347 7.05556 5.54061 6.84175L8.5339 4.8417C8.28118 4.46348 7.92199 4.16871 7.50175 3.99463L6.12409 7.3206ZM5.54061 6.84175C5.39775 6.62795 5.32149 6.37658 5.32149 6.11943H8.92149C8.92149 5.66456 8.78661 5.2199 8.5339 4.8417L5.54061 6.84175ZM5.32149 6.11823C5.32172 5.7738 5.45865 5.44355 5.7022 5.2L8.24778 7.74558C8.67878 7.31459 8.92109 6.73015 8.92149 6.12064L5.32149 6.11823ZM5.7022 5.2C5.94575 4.95645 6.276 4.81953 6.62042 4.8193L6.62283 8.4193C7.23235 8.41889 7.81678 8.17658 8.24778 7.74558L5.7022 5.2ZM9.62671 -1.126C9.41314 -1.33968 9.15957 -1.50918 8.88048 -1.62483L7.50237 1.70095C7.34457 1.63556 7.20119 1.53972 7.08043 1.41889L9.62671 -1.126ZM8.88048 -1.62483C8.60139 -1.74048 8.30225 -1.8 8.00015 -1.8V1.8C7.82933 1.8 7.66018 1.76634 7.50237 1.70095L8.88048 -1.62483ZM8.00015 -1.8C7.69804 -1.8 7.3989 -1.74048 7.11981 -1.62483L8.49792 1.70095C8.34011 1.76634 8.17097 1.8 8.00015 1.8V-1.8ZM7.11981 -1.62483C6.84071 -1.50918 6.58714 -1.33967 6.37359 -1.126L8.91987 1.41889C8.79912 1.53971 8.65574 1.63556 8.49792 1.70095L7.11981 -1.62483ZM6.37393 -1.12634L-0.624178 5.87177L1.92141 8.41735L8.91952 1.41924L6.37393 -1.12634ZM-0.61617 5.86381C-0.831934 6.07688 -1.00342 6.33052 -1.12078 6.61012L2.19868 8.00339C2.13233 8.16146 2.03538 8.30485 1.9134 8.42531L-0.61617 5.86381ZM-1.12078 6.61012C-1.23813 6.88972 -1.29904 7.18977 -1.29999 7.493L2.29999 7.50425C2.29946 7.67569 2.26502 7.84532 2.19868 8.00339L-1.12078 6.61012ZM-1.29999 7.493C-1.30094 7.79623 -1.24191 8.09666 -1.1263 8.37699L2.2018 7.00449C2.26716 7.16298 2.30053 7.33282 2.29999 7.50425L-1.29999 7.493ZM-1.1263 8.37699C-1.01069 8.65732 -0.840787 8.91202 -0.626367 9.12644L1.91916 6.5808C2.04038 6.70201 2.13644 6.84601 2.2018 7.00449L-1.1263 8.37699ZM-0.626367 9.12644C-0.411951 9.34084 -0.157245 9.51074 0.1231 9.62634L1.49546 6.29818C1.65395 6.36353 1.79795 6.45959 1.91916 6.5808L-0.626367 9.12644ZM0.1231 9.62634C0.403448 9.74194 0.703878 9.80095 1.0071 9.79999L0.995692 6.20001C1.16711 6.19946 1.33696 6.23282 1.49546 6.29818L0.1231 9.62634ZM1.0071 9.79999C1.31031 9.79903 1.61036 9.73812 1.88997 9.62074L0.49656 6.30134C0.654645 6.23498 0.824277 6.20055 0.995692 6.20001L1.0071 9.79999ZM1.88997 9.62074C2.16957 9.50337 2.4232 9.33187 2.63626 9.1161L0.0746502 6.58664C0.195103 6.46466 0.33849 6.3677 0.49656 6.30134L1.88997 9.62074ZM2.62825 9.12416L9.62636 2.12605L7.08077 -0.419535L0.0826614 6.57858L2.62825 9.12416ZM9.62607 2.12634C9.83972 1.91278 10.0092 1.65922 10.1248 1.38014L6.79904 0.00210185C6.86442 -0.155699 6.96026 -0.299072 7.08107 -0.419827L9.62607 2.12634ZM10.1248 1.38014C10.2405 1.10107 10.3 0.801948 10.3 0.499852H6.7C6.7 0.329031 6.73366 0.159895 6.79904 0.00210185L10.1248 1.38014ZM10.3 0.499852C10.3 0.197756 10.2405 -0.10137 10.1248 -0.380439L6.79904 0.997602C6.73366 0.83981 6.7 0.670673 6.7 0.499852H10.3ZM10.1248 -0.380439C10.0092 -0.659516 9.83972 -0.913077 9.62607 -1.12664L7.08107 1.41953C6.96026 1.29878 6.86442 1.1554 6.79904 0.997602L10.1248 -0.380439Z" fill="white" mask="url(#path-1-inside-1_33_18112)"/>
</svg>
