<svg width="48" height="48" viewBox="0 0 48 48" fill="none" xmlns="http://www.w3.org/2000/svg">
<path fill-rule="evenodd" clip-rule="evenodd" d="M24 47.9219C37.1848 47.9219 47.9219 37.1848 47.9219 24C47.9219 10.8152 37.1848 0.078125 24 0.078125C10.8152 0.078125 0.078125 10.8152 0.078125 24C0.078125 37.1848 10.8152 47.9219 24 47.9219ZM24.9239 37.1724C33.5796 37.1724 40.6043 30.1476 40.6043 21.492C40.6043 12.8363 33.5796 5.81157 24.9239 5.81157C16.2683 5.81157 9.24352 12.8363 9.24352 21.492C9.24352 24.1967 9.93058 26.7302 11.1437 28.9307L9.78309 38.0763L19.0908 36.7486C21.2055 37.8704 23.614 38.4944 26.1809 38.4482C25.7705 38.0294 25.362 37.6091 24.9239 37.1724ZM24.9239 34.5006C32.0534 34.5006 37.9325 28.6215 37.9325 21.492C37.9325 14.3625 32.0534 8.48341 24.9239 8.48341C17.7944 8.48341 11.9154 14.3625 11.9154 21.492C11.9154 24.4134 12.8623 27.0726 14.5031 29.1845L13.4936 35.8658L20.2897 34.8755C22.3161 36.3865 24.865 37.2648 27.6564 37.1724C26.7665 36.2802 25.8404 35.3935 24.9239 34.5006ZM19.4857 14.4625C19.4857 14.8259 19.7613 15.1015 20.1248 15.1015H22.1329C22.4964 15.1015 22.772 14.8259 22.772 14.4625V14.1428C22.772 13.7794 22.4964 13.5038 22.1329 13.5038H20.1248C19.7613 13.5038 19.4857 13.7794 19.4857 14.1428V14.4625ZM24.4857 14.4625C24.4857 14.8259 24.7613 15.1015 25.1248 15.1015H30.4857C30.8491 15.1015 31.1248 14.8259 31.1248 14.4625V14.1428C31.1248 13.7794 30.8491 13.5038 30.4857 13.5038H25.1248C24.7613 13.5038 24.4857 13.7794 24.4857 14.1428V14.4625ZM17.7939 17.4625C17.7939 17.8259 18.0695 18.1015 18.4329 18.1015H30.4857C30.8491 18.1015 31.1248 17.8259 31.1248 17.4625V17.1428C31.1248 16.7794 30.8491 16.5038 30.4857 16.5038H18.4329C18.0695 16.5038 17.7939 16.7794 17.7939 17.1428V17.4625ZM16.1021 20.4625C16.1021 20.8259 16.3777 21.1015 16.7412 21.1015H30.4857C30.8491 21.1015 31.1248 20.8259 31.1248 20.4625V20.1428C31.1248 19.7794 30.8491 19.5038 30.4857 19.5038H16.7412C16.3777 19.5038 16.1021 19.7794 16.1021 20.1428V20.4625ZM30.3799 23.1428C30.3799 22.7794 30.1043 22.5038 29.7408 22.5038H16.7412C16.3777 22.5038 16.1021 22.7794 16.1021 23.1428V23.4625C16.1021 23.8259 16.3777 24.1015 16.7412 24.1015H29.7408C30.1043 24.1015 30.3799 23.8259 30.3799 23.4625V23.1428ZM16.7412 25.5038C16.3777 25.5038 16.1021 25.7794 16.1021 26.1428V26.4625C16.1021 26.8259 16.3777 27.1015 16.7412 27.1015H24.6926C25.0561 27.1015 25.3317 26.8259 25.3317 26.4625V26.1428C25.3317 25.7794 25.0561 25.5038 24.6926 25.5038H16.7412Z" fill="#6B7280"/>
</svg> 