<?xml version="1.0" encoding="utf-8"?>
<!-- Generator: Adobe Illustrator 27.2.0, SVG Export Plug-In . SVG Version: 6.00 Build 0)  -->
<svg version="1.1" id="Capa_1" xmlns="http://www.w3.org/2000/svg" xmlns:xlink="http://www.w3.org/1999/xlink" x="0px" y="0px"
	 viewBox="0 0 500 500" style="enable-background:new 0 0 500 500;" xml:space="preserve">
<style type="text/css">
	.st0{display:none;}
	.st1{display:inline;}
	.st2{fill:#407BFF;}
	.st3{opacity:0.9;fill:#FFFFFF;enable-background:new    ;}
	.st4{opacity:0.3;}
	.st5{opacity:0.7;fill:#FFFFFF;enable-background:new    ;}
	.st6{opacity:0.2;fill:#407BFF;enable-background:new    ;}
	.st7{opacity:0.3;fill:#FFFFFF;enable-background:new    ;}
	.st8{opacity:0.4;fill:#407BFF;enable-background:new    ;}
	.st9{opacity:0.2;enable-background:new    ;}
	.st10{opacity:0.2;fill:#FFFFFF;enable-background:new    ;}
	.st11{opacity:0.3;fill:#407BFF;enable-background:new    ;}
	.st12{opacity:0.8;fill:#FFFFFF;enable-background:new    ;}
	.st13{fill:#263238;}
	.st14{fill:#FFFFFF;}
	.st15{opacity:0.5;fill:#FFFFFF;enable-background:new    ;}
	.st16{opacity:0.6;fill:#407BFF;enable-background:new    ;}
	.st17{opacity:0.5;fill:#407BFF;enable-background:new    ;}
	.st18{opacity:0.6;fill:#FFFFFF;enable-background:new    ;}
</style>
<g id="Background_Simple" class="st0">
	<g class="st1">
		<path class="st2" d="M104.7,145.9c-15.3,40.8-2.1,95.9,21.6,139c61,111.9,209.4,48.6,206.9-2.2c3.5-48.5-40.1-62.9-54.9-90.1
			C195.4,39.2,117,111.5,104.7,145.9z"/>
		<path class="st3" d="M104.7,145.9c-15.3,40.8-2.1,95.9,21.6,139c61,111.9,209.4,48.6,206.9-2.2c3.5-48.5-40.1-62.9-54.9-90.1
			C195.4,39.2,117,111.5,104.7,145.9z"/>
	</g>
</g>
<g id="_x34_04">
	<g>
		<path class="st2" d="M147.7,287.6H86.8v-27.5l60.9-72.3h29.1v73.9h15.1v25.9h-15.1v22.5h-29.1V287.6z M147.7,261.7v-37.8
			l-32.2,37.8H147.7z"/>
		<path class="st2" d="M202.3,249.5c0-22.9,4.1-38.8,12.3-48c8.2-9.1,20.8-13.7,37.6-13.7c8.1,0,14.7,1,19.9,3
			c5.2,2,9.4,4.6,12.7,7.8c3.3,3.2,5.9,6.6,7.8,10.1c1.9,3.5,3.4,7.6,4.6,12.3c2.2,9,3.4,18.3,3.4,28c0,21.8-3.7,37.8-11.1,47.9
			c-7.4,10.1-20.1,15.2-38.1,15.2c-10.1,0-18.3-1.6-24.5-4.8c-6.2-3.2-11.3-8-15.3-14.2c-2.9-4.4-5.2-10.5-6.8-18.2
			C203.1,267.3,202.3,258.8,202.3,249.5z M235.4,249.6c0,15.3,1.4,25.8,4.1,31.4c2.7,5.6,6.6,8.4,11.8,8.4c3.4,0,6.3-1.2,8.8-3.6
			c2.5-2.4,4.3-6.1,5.5-11.3c1.2-5.1,1.8-13.1,1.8-24c0-16-1.4-26.7-4.1-32.2c-2.7-5.5-6.8-8.2-12.2-8.2c-5.5,0-9.5,2.8-12,8.4
			C236.7,224.1,235.4,234.4,235.4,249.6z"/>
		<path class="st2" d="M371.7,287.6h-60.9v-27.5l60.9-72.3h29.1v73.9h15.1v25.9h-15.1v22.5h-29.1V287.6z M371.7,261.7v-37.8
			l-32.2,37.8H371.7z"/>
	</g>
</g>
<g id="Planets">
	<g>
		<g class="st4">
			<path class="st2" d="M201,145.6c0,1-0.8,1.9-1.9,1.9s-1.9-0.8-1.9-1.9s0.8-1.9,1.9-1.9C200.1,143.8,201,144.6,201,145.6z"/>
			<circle class="st2" cx="73" cy="216.1" r="1.3"/>
			<circle class="st2" cx="291.1" cy="408.3" r="1.9"/>
			<circle class="st2" cx="336.5" cy="332" r="1.3"/>
			<path class="st2" d="M424.2,95.6c0,0.7-0.6,1.3-1.3,1.3s-1.3-0.6-1.3-1.3c0-0.7,0.6-1.3,1.3-1.3
				C423.6,94.3,424.2,94.9,424.2,95.6z"/>
			<path class="st2" d="M172.8,69c0,0.7-0.6,1.3-1.3,1.3s-1.3-0.6-1.3-1.3s0.6-1.3,1.3-1.3S172.8,68.2,172.8,69z"/>
			<circle class="st2" cx="277.7" cy="136.9" r="1.3"/>
		</g>
		<g>
			<g>
				<circle class="st2" cx="141.2" cy="116.4" r="21.9"/>
				<circle class="st5" cx="141.2" cy="116.4" r="21.9"/>
			</g>
			<path class="st6" d="M133.7,99.8c-3.1,0-6,0.6-8.6,1.8c-3.6,3.9-5.7,9.1-5.7,14.8c0,12.1,9.8,21.9,21.9,21.9c3.1,0,6-0.6,8.7-1.8
				c0,0,0,0,0,0c3.5-3.9,5.7-9.1,5.7-14.7C155.6,109.6,145.8,99.8,133.7,99.8z"/>
			<path class="st6" d="M131.5,105.6c0,1.1-0.9,2-2,2s-2-0.9-2-2c0-1.1,0.9-2,2-2S131.5,104.5,131.5,105.6z"/>
			<path class="st6" d="M155.1,103.6c0,1.1-0.9,2-2,2s-2-0.9-2-2c0-1.1,0.9-2,2-2C154.2,101.6,155.1,102.5,155.1,103.6z"/>
			<path class="st6" d="M151.1,117.9c0,1.8-1.5,3.3-3.3,3.3c-1.8,0-3.3-1.5-3.3-3.3s1.5-3.3,3.3-3.3
				C149.6,114.6,151.1,116.1,151.1,117.9z"/>
			<path class="st6" d="M140.6,127.2c0,2.4-2,4.4-4.4,4.4c-2.4,0-4.4-2-4.4-4.4c0-2.4,2-4.4,4.4-4.4
				C138.7,122.9,140.6,124.8,140.6,127.2z"/>
		</g>
		<g>
			<g>
				<ellipse class="st2" cx="382.2" cy="376.3" rx="19.2" ry="19.2"/>
				<ellipse class="st7" cx="382.2" cy="376.3" rx="19.2" ry="19.2"/>
			</g>
			<path class="st8" d="M394.3,361.3c-1.7-0.5-3.6-0.8-5.5-0.8c-10.6,0-19.2,8.6-19.2,19.2c0,6,2.8,11.4,7.1,14.9
				c1.7,0.5,3.6,0.8,5.5,0.8c10.6,0,19.2-8.6,19.2-19.2C401.4,370.2,398.7,364.9,394.3,361.3z"/>
			<path class="st2" d="M363.8,381.9c-20.5,9.7-5.2,17.1,23.7,6.7c26.8-9.6,37-21.8,13.1-18C401.8,375.8,368.3,388.8,363.8,381.9z"
				/>
		</g>
	</g>
</g>
<g id="Astronaut">
	<g>
		<path class="st9" d="M394.1,187.8c-26.9,18.2-61.7,42.1-71.3,99.8h-2c9.4-57,42.9-81.6,69.8-99.8L394.1,187.8L394.1,187.8z"/>
		<g>
			<path class="st2" d="M255,368.3c-17,0-33.8-7.7-42-20.2c-5.1-7.7-10.9-24,6.6-45.6l1.6,1.3c-12.4,15.3-14.6,30.6-6.4,43.2
				c10,15.3,33.6,23,53.7,17.5c20.6-5.6,33.2-23.6,34.4-49.2c4.1-87.8,50.8-114.9,84.8-134.6c21.2-12.3,36.5-21.1,33.1-39.8
				c-0.5-2.6-1.5-4.4-3.2-5.5c-4.4-2.9-12.9-0.9-22.7,1.4c-19.3,4.5-45.7,10.7-61.5-16.1l1.7-1c15,25.5,39.6,19.8,59.3,15.2
				c10.3-2.4,19.2-4.5,24.2-1.1c2.1,1.4,3.5,3.6,4,6.8c3.6,20.1-13,29.7-34.1,41.9c-33.7,19.5-79.8,46.3-83.9,133
				c-1.3,26.6-14.3,45.2-35.8,51.1C264.4,367.7,259.7,368.3,255,368.3z"/>
			<path class="st10" d="M255,368.3c-17,0-33.8-7.7-42-20.2c-5.1-7.7-10.9-24,6.6-45.6l1.6,1.3c-12.4,15.3-14.6,30.6-6.4,43.2
				c10,15.3,33.6,23,53.7,17.5c20.6-5.6,33.2-23.6,34.4-49.2c4.1-87.8,50.8-114.9,84.8-134.6c21.2-12.3,36.5-21.1,33.1-39.8
				c-0.5-2.6-1.5-4.4-3.2-5.5c-4.4-2.9-12.9-0.9-22.7,1.4c-19.3,4.5-45.7,10.7-61.5-16.1l1.7-1c15,25.5,39.6,19.8,59.3,15.2
				c10.3-2.4,19.2-4.5,24.2-1.1c2.1,1.4,3.5,3.6,4,6.8c3.6,20.1-13,29.7-34.1,41.9c-33.7,19.5-79.8,46.3-83.9,133
				c-1.3,26.6-14.3,45.2-35.8,51.1C264.4,367.7,259.7,368.3,255,368.3z"/>
		</g>
		<g>
			<g>
				<path class="st2" d="M312.8,96.9c6.9-0.1,13.6,2.1,13.6,2.1s11,18.8,12.3,23.1c-0.5,4.2-7.6,11.2-7.6,11.2L312.8,96.9z"/>
				<path class="st7" d="M312.8,96.9c6.9-0.1,13.6,2.1,13.6,2.1s11,18.8,12.3,23.1c-0.5,4.2-7.6,11.2-7.6,11.2L312.8,96.9z"/>
			</g>
			<g>
				<g>
					<path class="st2" d="M345.3,188.1c-4.1-5.2-8.2-10.6-11.6-16.4c-0.8-1.4-1.6-2.9-2.4-4.4c-0.4-0.8-0.8-1.7-1.2-2.6
						c-0.4-0.8-1.1-1.9-1.2-2.7c-1.2-12.7,3.1-22-1-32.2l-16.5,6.4c0,0,1.4,18.1,4.6,29c2,6.7,6.5,12.5,10.8,17.9
						c1.4,1.7,2.7,3.4,4,5.1c1.3,1.6,2.7,3.1,4,4.7c1.9,2.4,2.6,4.7,1.1,7.6c-0.1,0.2-0.2,0.3-0.2,0.5c-0.4,0.7,1.5,1.6,2.8,0
						c2-2.6,1.7-2.4,3.5-4.6c1.1-1.3,2.3-2.8,3.3-4C346.3,191.2,346.3,189.4,345.3,188.1z"/>
					<path class="st5" d="M345.3,188.1c-4.1-5.2-8.2-10.6-11.6-16.4c-0.8-1.4-1.6-2.9-2.4-4.4c-0.4-0.8-0.8-1.7-1.2-2.6
						c-0.4-0.8-1.1-1.9-1.2-2.7c-1.2-12.7,3.1-22-1-32.2l-16.5,6.4c0,0,1.4,18.1,4.6,29c2,6.7,6.5,12.5,10.8,17.9
						c1.4,1.7,2.7,3.4,4,5.1c1.3,1.6,2.7,3.1,4,4.7c1.9,2.4,2.6,4.7,1.1,7.6c-0.1,0.2-0.2,0.3-0.2,0.5c-0.4,0.7,1.5,1.6,2.8,0
						c2-2.6,1.7-2.4,3.5-4.6c1.1-1.3,2.3-2.8,3.3-4C346.3,191.2,346.3,189.4,345.3,188.1z"/>
				</g>
				<path class="st11" d="M341.3,182.9c-2.2,2.7-6.7,6.1-8.7,7.5c0.4,0.5,0.9,1,1.3,1.5c4.1-2.7,7.3-6.1,8.5-7.5
					C342.1,183.9,341.7,183.4,341.3,182.9z"/>
				<path class="st11" d="M345.3,188.1c0-0.1-0.1-0.1-0.1-0.1c-0.7,0.7-1.2,1.9-1.3,3.2c-0.1,0.9,0.1,1.7,0.4,2.4
					c0.3-0.4,0.6-0.8,0.9-1.1C346.3,191.2,346.3,189.4,345.3,188.1z"/>
			</g>
			<g>
				<g>
					<path class="st2" d="M308.8,109c-1.7,2.5-3.8,5-6.4,7.2c-1.3,1.1-2.8,2.1-4.4,3c-0.8,0.4-1.7,0.8-2.6,1.1l-0.7,0.2l-0.2,0.1
						c-0.2,0-0.3,0.1-0.5,0.1c-0.3,0.1-0.6,0.1-0.9,0.1c-1.1,0.1-1.9-0.1-2.5-0.2c-1.3-0.3-2.1-0.8-2.9-1.3
						c-0.8-0.5-1.5-0.9-2.2-1.4c-1.3-1-2.5-2-3.6-3c-2.2-2.1-4.2-4.3-6-6.7c-0.8-1.1-0.6-2.7,0.5-3.5c0.9-0.6,2-0.7,2.8-0.1l0.1,0
						c2.4,1.5,4.7,3.1,7.1,4.5c1.2,0.7,2.3,1.4,3.4,1.9c0.6,0.3,1.1,0.5,1.6,0.7c0.5,0.2,1,0.3,1.1,0.3c0.1,0,0-0.1-0.4-0.1
						c-0.1,0-0.2,0-0.3,0c-0.1,0-0.1,0-0.2,0.1c-0.1,0,0,0,0,0l0.3-0.2c0.4-0.2,0.9-0.5,1.3-0.8c0.9-0.6,1.7-1.3,2.5-2.1
						c1.6-1.6,3.2-3.7,4.9-5.8l0,0c1.7-2.2,4.9-2.5,7-0.8C309.9,103.8,310.3,106.8,308.8,109z"/>
					<path class="st5" d="M308.8,109c-1.7,2.5-3.8,5-6.4,7.2c-1.3,1.1-2.8,2.1-4.4,3c-0.8,0.4-1.7,0.8-2.6,1.1l-0.7,0.2l-0.2,0.1
						c-0.2,0-0.3,0.1-0.5,0.1c-0.3,0.1-0.6,0.1-0.9,0.1c-1.1,0.1-1.9-0.1-2.5-0.2c-1.3-0.3-2.1-0.8-2.9-1.3
						c-0.8-0.5-1.5-0.9-2.2-1.4c-1.3-1-2.5-2-3.6-3c-2.2-2.1-4.2-4.3-6-6.7c-0.8-1.1-0.6-2.7,0.5-3.5c0.9-0.6,2-0.7,2.8-0.1l0.1,0
						c2.4,1.5,4.7,3.1,7.1,4.5c1.2,0.7,2.3,1.4,3.4,1.9c0.6,0.3,1.1,0.5,1.6,0.7c0.5,0.2,1,0.3,1.1,0.3c0.1,0,0-0.1-0.4-0.1
						c-0.1,0-0.2,0-0.3,0c-0.1,0-0.1,0-0.2,0.1c-0.1,0,0,0,0,0l0.3-0.2c0.4-0.2,0.9-0.5,1.3-0.8c0.9-0.6,1.7-1.3,2.5-2.1
						c1.6-1.6,3.2-3.7,4.9-5.8l0,0c1.7-2.2,4.9-2.5,7-0.8C309.9,103.8,310.3,106.8,308.8,109z"/>
				</g>
				<g>
					<path class="st2" d="M272.3,102.4l1.2,2c0,0,0.9,2.6,2.7,3.1l4.9-1.6l-0.2-0.4c0,0,0,0,0,0c-0.6-0.9-0.6-2.8-0.3-4.3
						c0.2-1.5-0.6-1.6-1.2-1.2c-0.3,0.2-0.6,0.9-0.8,1.7c-0.2-0.3-0.5-0.6-0.8-0.9l-1.5-1.5c-0.6-0.6-1.7-0.7-2.3-0.1l-1.2,1.1
						C272,100.8,271.9,101.7,272.3,102.4z"/>
					<path class="st5" d="M272.3,102.4l1.2,2c0,0,0.9,2.6,2.7,3.1l4.9-1.6l-0.2-0.4c0,0,0,0,0,0c-0.6-0.9-0.6-2.8-0.3-4.3
						c0.2-1.5-0.6-1.6-1.2-1.2c-0.3,0.2-0.6,0.9-0.8,1.7c-0.2-0.3-0.5-0.6-0.8-0.9l-1.5-1.5c-0.6-0.6-1.7-0.7-2.3-0.1l-1.2,1.1
						C272,100.8,271.9,101.7,272.3,102.4z"/>
				</g>
			</g>
			<g>
				<path class="st2" d="M317.7,95.2c-4.6,1.1-11,3.8-15.3,6.5c-1.5,1-2.3,2.8-1.9,4.5c1.9,9.4,6.3,22.1,11.1,30.1l22.1-9.1
					c0.2-3.9-5.2-16.5-10.7-28.7C321.9,96.3,320,94.7,317.7,95.2z"/>
				<path class="st12" d="M317.7,95.2c-4.6,1.1-11,3.8-15.3,6.5c-1.5,1-2.3,2.8-1.9,4.5c1.9,9.4,6.3,22.1,11.1,30.1l22.1-9.1
					c0.2-3.9-5.2-16.5-10.7-28.7C321.9,96.3,320,94.7,317.7,95.2z"/>
			</g>
			<path class="st11" d="M326.3,106.2l-4.4-1.5c1,2.6,4.5,5.8,7,7.7C328.1,110.5,327.2,108.4,326.3,106.2z"/>
			<g>
				<path class="st2" d="M316.2,85.3c-1.8-3.5-5.8-5.2-10.5-4.8c-4,0.3-7.5,4.4-7.1,6.6c0.4,2.2,3.8,3.1,4.4,3.9l-2.8,2
					c-1.4,1-1.6,2.9-0.6,4.3c1.2,1.5,2.7,3,3.6,4.1c7.7-0.2,13.3-3.1,15.4-5.9C317.8,91.9,318,88.8,316.2,85.3z"/>
				<path class="st12" d="M316.2,85.3c-1.8-3.5-5.8-5.2-10.5-4.8c-4,0.3-7.5,4.4-7.1,6.6c0.4,2.2,3.8,3.1,4.4,3.9l-2.8,2
					c-1.4,1-1.6,2.9-0.6,4.3c1.2,1.5,2.7,3,3.6,4.1c7.7-0.2,13.3-3.1,15.4-5.9C317.8,91.9,318,88.8,316.2,85.3z"/>
			</g>
			<path class="st13" d="M312.5,87.5c1.5,3.9-0.4,8.3-4.3,9.8c-3.9,1.5-8.3-0.4-9.8-4.3c-1.5-3.9,0.4-8.3,4.3-9.8
				C306.5,81.7,310.9,83.6,312.5,87.5z"/>
			<g>
				<g>
					<path class="st2" d="M377.4,177.6c-0.1-3.3-0.3-3-0.3-5.8c-0.1-1.7-0.1-3.6-0.1-5.2c0-1.6-1.1-3-2.7-3.3
						c-1.3-0.3-2.7-0.5-4-0.8c-1.7-0.4-3.4-0.8-5.1-1.3c-1.3-0.4-2.6-0.8-3.9-1.3c-1.4-0.5-2.7-1-4.1-1.6c-1.6-0.7-3.1-1.4-4.7-2.1
						c-1.7-0.8-3.4-1.7-5.1-2.6c-6.6-10.9-6.7-18.1-13.8-26.5l-15.2,6.9c0,0,11.1,19.8,18.7,28.1c4.4,4.8,11.2,7,17.3,8.6
						c4.4,1.1,8.9,2,13.4,2.8c1.7,0.3,3.6,0.4,5.1,1.5c1.2,0.8,1.8,2.1,2.1,3.5c0.1,0.3,0.1,0.6,0.2,0.8
						C375.4,180.2,377.5,179.6,377.4,177.6z"/>
					<path class="st12" d="M377.4,177.6c-0.1-3.3-0.3-3-0.3-5.8c-0.1-1.7-0.1-3.6-0.1-5.2c0-1.6-1.1-3-2.7-3.3
						c-1.3-0.3-2.7-0.5-4-0.8c-1.7-0.4-3.4-0.8-5.1-1.3c-1.3-0.4-2.6-0.8-3.9-1.3c-1.4-0.5-2.7-1-4.1-1.6c-1.6-0.7-3.1-1.4-4.7-2.1
						c-1.7-0.8-3.4-1.7-5.1-2.6c-6.6-10.9-6.7-18.1-13.8-26.5l-15.2,6.9c0,0,11.1,19.8,18.7,28.1c4.4,4.8,11.2,7,17.3,8.6
						c4.4,1.1,8.9,2,13.4,2.8c1.7,0.3,3.6,0.4,5.1,1.5c1.2,0.8,1.8,2.1,2.1,3.5c0.1,0.3,0.1,0.6,0.2,0.8
						C375.4,180.2,377.5,179.6,377.4,177.6z"/>
				</g>
				<path class="st11" d="M369.7,162.4c-0.6-0.1-1.2-0.3-1.8-0.4c0,3.5-1.6,9.4-2.2,11.2c0.6,0.1,1.3,0.2,1.9,0.4
					C369.4,168.8,369.7,163.8,369.7,162.4z"/>
				<path class="st11" d="M377,166.6c0-1.6-1.1-3-2.7-3.3c-0.3-0.1-0.6-0.1-1-0.2c0.1,0.9,0.6,2,1.6,2.9c0.6,0.6,1.4,1,2,1.1
					C377,167,377,166.8,377,166.6z"/>
			</g>
			<path class="st14" d="M311,87.5c0.4,1.5-1.3,3.1-2.6,1.8c-1.1-1.1-2.8-2.8-4.1-3.7c-1.4-0.9,0.5-2.4,2.6-1.8
				C309,84.4,310.6,86,311,87.5z"/>
			<g>
				<path class="st2" d="M311.2,135.9c-0.7,0.3,0.6,1.5,0.6,1.5s14-4.8,22.5-9.7c0.1-1-0.7-1.6-0.7-1.6S323.2,131.4,311.2,135.9z"/>
				<path class="st15" d="M311.2,135.9c-0.7,0.3,0.6,1.5,0.6,1.5s14-4.8,22.5-9.7c0.1-1-0.7-1.6-0.7-1.6S323.2,131.4,311.2,135.9z"
					/>
			</g>
			<g>
				<g>
					<path class="st2" d="M321.5,94.6c2.8,1.4,5.4,2.9,7.9,4.5c1.3,0.8,2.6,1.6,3.8,2.5c1.3,0.9,2.5,1.8,3.8,2.9l0.5,0.4l0.6,0.5
						c0.4,0.4,0.7,0.7,1,1.1c0.3,0.4,0.6,0.7,0.9,1c0.3,0.3,0.5,0.7,0.8,1c1,1.3,1.8,2.7,2.6,4c1.5,2.7,2.9,5.4,4,8.3
						c0.5,1.3-0.2,2.8-1.5,3.2c-1,0.4-2,0.1-2.7-0.6l0-0.1c-2-2.1-3.9-4.4-5.9-6.5c-1.9-2.1-3.9-4.2-5.5-5.1
						c-2.3-1.4-4.8-2.8-7.3-4.2l-7.6-4.2l0,0c-2.4-1.3-3.3-4.4-1.9-6.8C316.1,94.2,319.1,93.4,321.5,94.6z"/>
					<path class="st12" d="M321.5,94.6c2.8,1.4,5.4,2.9,7.9,4.5c1.3,0.8,2.6,1.6,3.8,2.5c1.3,0.9,2.5,1.8,3.8,2.9l0.5,0.4l0.6,0.5
						c0.4,0.4,0.7,0.7,1,1.1c0.3,0.4,0.6,0.7,0.9,1c0.3,0.3,0.5,0.7,0.8,1c1,1.3,1.8,2.7,2.6,4c1.5,2.7,2.9,5.4,4,8.3
						c0.5,1.3-0.2,2.8-1.5,3.2c-1,0.4-2,0.1-2.7-0.6l0-0.1c-2-2.1-3.9-4.4-5.9-6.5c-1.9-2.1-3.9-4.2-5.5-5.1
						c-2.3-1.4-4.8-2.8-7.3-4.2l-7.6-4.2l0,0c-2.4-1.3-3.3-4.4-1.9-6.8C316.1,94.2,319.1,93.4,321.5,94.6z"/>
				</g>
				<g>
					<path class="st2" d="M349.7,125.7l-0.8-2.1c0,0-0.5-2.7-2.2-3.5l-5,0.8l0.2,0.4c0,0,0,0,0,0c0.5,1,0.1,2.8-0.3,4.3
						c-0.5,1.5,0.3,1.6,1,1.4c0.4-0.2,0.7-0.8,1.1-1.5c0.2,0.4,0.4,0.7,0.6,1l1.2,1.7c0.5,0.7,1.5,0.9,2.3,0.4l1.4-0.9
						C349.8,127.4,350,126.5,349.7,125.7z"/>
					<path class="st12" d="M349.7,125.7l-0.8-2.1c0,0-0.5-2.7-2.2-3.5l-5,0.8l0.2,0.4c0,0,0,0,0,0c0.5,1,0.1,2.8-0.3,4.3
						c-0.5,1.5,0.3,1.6,1,1.4c0.4-0.2,0.7-0.8,1.1-1.5c0.2,0.4,0.4,0.7,0.6,1l1.2,1.7c0.5,0.7,1.5,0.9,2.3,0.4l1.4-0.9
						C349.8,127.4,350,126.5,349.7,125.7z"/>
				</g>
			</g>
			<g>
				<g>
					<path class="st11" d="M317.2,106.1l-1.2,0.1l-7.5,18.1c0.4,0,0.8,0,1.2-0.1c0,0,9.8-3.6,12.7-5
						C320.5,115.1,317.2,106.1,317.2,106.1z"/>
					<path class="st14" d="M303.6,110.8c0.4,3.3,2.9,10.2,5,13.4c3.7-1.3,9.8-3.6,12.7-5c-2-4.1-4.1-9.8-5.2-13.1
						C312.9,106.4,306,109,303.6,110.8z"/>
				</g>
				<path class="st11" d="M311,114.7c-0.4,1.4-1.8,2.1-3.2,1.7s-2.1-1.8-1.7-3.2c0.4-1.4,1.8-2.1,3.2-1.7
					C310.6,111.9,311.4,113.3,311,114.7z"/>
				<path class="st16" d="M312.9,111.3c-0.1,0.4-0.6,0.7-1.1,0.6c-0.4-0.1-0.7-0.6-0.6-1.1c0.1-0.4,0.6-0.7,1.1-0.6
					C312.8,110.3,313,110.8,312.9,111.3z"/>
				<path class="st16" d="M315.1,110.4c-0.1,0.4-0.6,0.7-1.1,0.6c-0.4-0.1-0.7-0.6-0.6-1.1s0.6-0.7,1.1-0.6
					C315,109.5,315.3,110,315.1,110.4z"/>
				<polygon class="st17" points="318.3,118.2 309,121.8 308.5,120 317.7,116.4 				"/>
			</g>
		</g>
	</g>
</g>
<g id="Rocket">
	<g>
		<path class="st9" d="M267.3,257.2c-0.2,7.5-0.8,13.3-1.7,17.4c-1.2,5.1-3,8.9-5.5,11.3c-2.5,2.4-5.4,3.6-8.8,3.6
			c-5.1,0-9.1-2.8-11.8-8.4c-0.4-0.9-0.8-2-1.2-3.1c-5.7,4.9-11,10.3-15.9,16l-5.3,6.3c2.9,2.9,6.1,5.3,9.8,7.2
			c6.2,3.2,14.4,4.8,24.5,4.8c1.8,0,3.5,0,5.2-0.1c6.1-9.1,11.2-18.8,15.1-29l14.9-38.7L267.3,257.2z"/>
		<g>
			<g>
				<path class="st13" d="M133.4,310c5.6,5.6,17.5,17.5,17.5,17.5l49-46.2C183,274.9,150.2,293.2,133.4,310z"/>
				<path class="st13" d="M194.4,371c-5.6-5.6-17.5-17.5-17.5-17.5l46.2-49C229.5,321.3,211.2,354.2,194.4,371z"/>
				<g>
					<path class="st2" d="M261.4,260.7l19.1-36.8L243.7,243c-11.8,6.1-22.7,13.9-32.4,23l-62.7,59.1l30.8,30.8l59.1-62.7
						C247.5,283.4,255.3,272.5,261.4,260.7z"/>
					<path class="st18" d="M261.4,260.7l19.1-36.8L243.7,243c-11.8,6.1-22.7,13.9-32.4,23l-62.7,59.1l30.8,30.8l59.1-62.7
						C247.5,283.4,255.3,272.5,261.4,260.7z"/>
				</g>
				<circle class="st14" cx="222.2" cy="282.2" r="12.9"/>
				<circle class="st2" cx="222.2" cy="282.2" r="8.3"/>
				<polygon class="st11" points="189.7,344.8 159.6,314.6 184.3,291.4 213,320.1 				"/>
				<g>
					<path class="st2" d="M140.2,337.6c-22.6,1.8-30.1,16.3-32.6,35.5c-1.3,9.8-1.9,19.7-10.1,25.5c-2.3,1.6-1.2,5.1,1.6,5.1
						c30.3-0.9,44.5-15.8,46.3-22c-0.6,3.9-1.5,7-2.5,9.5c-1,2.5,1.7,4.8,4,3.4c8.5-5.3,19.2-15.2,19.9-31.1
						C160.5,354.6,140.2,337.6,140.2,337.6z"/>
					<path class="st10" d="M140.2,337.6c-22.6,1.8-30.1,16.3-32.6,35.5c-1.3,9.8-1.9,19.7-10.1,25.5c-2.3,1.6-1.2,5.1,1.6,5.1
						c30.3-0.9,44.5-15.8,46.3-22c-0.6,3.9-1.5,7-2.5,9.5c-1,2.5,1.7,4.8,4,3.4c8.5-5.3,19.2-15.2,19.9-31.1
						C160.5,354.6,140.2,337.6,140.2,337.6z"/>
				</g>
				<polygon class="st2" points="170.3,370.3 134.1,334.1 153.4,329.9 174.4,351 				"/>
			</g>
		</g>
	</g>
</g>
</svg>
