<svg width="24" height="24" viewBox="0 0 24 24" fill="none" xmlns="http://www.w3.org/2000/svg">
<path d="M19.7498 17.4167H8.58316C7.47859 17.4167 6.58316 16.5212 6.58316 15.4167V4.25C6.58316 3.14543 7.47859 2.25 8.58316 2.25H19.7498C20.8544 2.25 21.7498 3.14543 21.7498 4.25V15.4167C21.7498 16.5212 20.8544 17.4167 19.7498 17.4167Z" stroke="#121219" stroke-width="1.5" stroke-linecap="round"/>
<path d="M6.58317 6.58335L4.24983 6.58335C3.14526 6.58335 2.24983 7.47878 2.24983 8.58335L2.24983 19.75C2.24983 20.8546 3.14526 21.75 4.24983 21.75L15.4165 21.75C16.5211 21.75 17.4165 20.8546 17.4165 19.75L17.4165 17.4167" stroke="#121219" stroke-width="1.5" stroke-linecap="round"/>
</svg>
